<svg width="24" height="24" viewBox="0 0 24 24" fill="none" xmlns="http://www.w3.org/2000/svg">
<g clip-path="url(#clip0_30_2291)">
<path d="M12 6C11.4 6 11 6.4 11 7V11.4L8.6 12.6C8.1 12.8 7.9 13.4 8.2 13.9C8.5 14.4 9 14.6 9.5 14.3L12.5 12.8C12.8 12.6 13.1 12.3 13.1 11.9V7C13 6.4 12.6 6 12 6ZM12 2C6.5 2 2 6.5 2 12C2 17.5 6.5 22 12 22C17.5 22 22 17.5 22 12C22 6.5 17.5 2 12 2ZM12 20C7.6 20 4 16.4 4 12C4 7.6 7.6 4 12 4C16.4 4 20 7.6 20 12C20 16.4 16.4 20 12 20Z" fill="#263238"/>
</g>
<defs>
<clipPath id="clip0_30_2291">
<rect width="20" height="20" fill="white" transform="translate(2 2)"/>
</clipPath>
</defs>
</svg>
