<svg width="24" height="24" viewBox="0 0 24 24" fill="none" xmlns="http://www.w3.org/2000/svg">
    <path fill-rule="evenodd" clip-rule="evenodd" d="M16.6472 8.70065C17.0342 8.30659 17.0284 7.67345 16.6344 7.2865C16.2403 6.89954 15.6072 6.90529 15.2202 7.29935L11.9897 10.5891L8.70065 7.35935C8.30659 6.97239 7.67345 6.97815 7.28649 7.37221C6.89954 7.76627 6.90529 8.3994 7.29935 8.78636L10.5884 12.0161L7.36015 15.3036C6.97319 15.6977 6.97894 16.3308 7.373 16.7178C7.76706 17.1047 8.4002 17.099 8.78716 16.7049L12.0154 13.4174L15.3036 16.6464C15.6977 17.0334 16.3308 17.0276 16.7178 16.6336C17.1047 16.2395 17.099 15.6064 16.7049 15.2194L13.4167 11.9904L16.6472 8.70065Z" fill="#8F95AE"/>
</svg>
