<svg width="36" height="36" viewBox="0 0 36 36" fill="none" xmlns="http://www.w3.org/2000/svg">
<g clip-path="url(#clip0_103_2083)">
<mask id="mask0_103_2083" style="mask-type:luminance" maskUnits="userSpaceOnUse" x="0" y="0" width="36" height="36">
<path d="M36 0H0V36H36V0Z" fill="white"/>
</mask>
<g mask="url(#mask0_103_2083)">
<path d="M18 36C27.9 36 36 27.9 36 18C36 8.1 27.9 0 18 0C8.1 0 0 8.1 0 18C0 27.9 8.1 36 18 36Z" fill="#DB0626"/>
<path d="M9.54768 14H7.44806L5.84571 16.4229L4.24336 14H2.17682L4.76265 17.9086L2 22H4.06654L5.84571 19.3485L7.6469 22H9.75758L6.97292 17.8287L9.54768 14Z" fill="white"/>
<path d="M15.6872 19.0054C15.5758 19.3075 15.4188 19.569 15.2162 19.79C15.0137 20.0109 14.779 20.1805 14.5124 20.2982C14.2456 20.4162 13.9536 20.475 13.6363 20.475C13.3189 20.475 13.0253 20.4162 12.7553 20.2982C12.4851 20.1805 12.2505 20.0109 12.0514 19.79C11.8522 19.569 11.697 19.3057 11.5855 18.9999C11.4741 18.6943 11.4185 18.361 11.4185 18C11.4185 17.6317 11.4741 17.2965 11.5855 16.9944C11.697 16.6925 11.8539 16.4309 12.0564 16.21C12.2591 15.9889 12.4935 15.8195 12.7603 15.7016C13.027 15.5838 13.3189 15.5248 13.6363 15.5248C13.9536 15.5248 14.2474 15.5838 14.5175 15.7016C14.7875 15.8195 15.0221 15.9889 15.2214 16.21C15.4204 16.4309 15.5758 16.6925 15.6872 16.9944C15.7986 17.2965 15.8543 17.6317 15.8543 18C15.8543 18.3684 15.7986 18.7035 15.6872 19.0054ZM16.4062 15.1381C16.0584 14.7772 15.65 14.4972 15.1809 14.2983C14.7115 14.0994 14.1967 14 13.6363 14C13.0828 14 12.5695 14.0994 12.097 14.2983C11.6244 14.4972 11.2124 14.7772 10.8615 15.1381C10.5103 15.4991 10.2387 15.9226 10.0461 16.4088C9.85375 16.8949 9.75758 17.4253 9.75758 18C9.75758 18.5745 9.85375 19.105 10.0461 19.5912C10.2387 20.0773 10.5085 20.501 10.8564 20.8618C11.2041 21.2229 11.6159 21.5028 12.0919 21.7016C12.568 21.9004 13.086 22 13.6465 22C14.2001 22 14.7115 21.9004 15.1809 21.7016C15.65 21.5028 16.0584 21.2247 16.4062 20.8673C16.7539 20.5101 17.0257 20.0867 17.2215 19.5966C17.4173 19.1068 17.5152 18.5745 17.5152 18C17.5152 17.4181 17.4173 16.8858 17.2215 16.4033C17.0257 15.9209 16.7539 15.4991 16.4062 15.1381Z" fill="white"/>
<path d="M21.4347 18.2077L19.4055 14H17.5152L20.5261 19.7441L20.4653 19.8375C20.2394 20.1954 19.9826 20.4023 19.695 20.4582C19.4071 20.5141 19.0521 20.4787 18.6297 20.3519L18.2036 21.7275C18.7133 21.9435 19.205 22.0311 19.6786 21.9902C20.152 21.9492 20.5872 21.7797 20.9843 21.4814C21.3812 21.1834 21.7253 20.7545 22.0168 20.1954L25.2727 14H23.5355L21.4347 18.2077Z" fill="white"/>
<path d="M32.6727 14L30.1379 18.9675L27.5599 14H26.2424V22H27.7368V17.2991L29.7624 21.1543H30.4703L32.4966 17.2153L32.5055 22H34L33.9902 14H32.6727Z" fill="white"/>
</g>
</g>
<defs>
<clipPath id="clip0_103_2083">
<rect width="36" height="36" fill="white"/>
</clipPath>
</defs>
</svg>
