<svg width="36" height="36" viewBox="0 0 36 36" fill="none" xmlns="http://www.w3.org/2000/svg">
<rect width="36" height="36" rx="18" fill="#CDFC68"/>
<path fill-rule="evenodd" clip-rule="evenodd" d="M6 17.8499C6 11.1832 11.3333 5.84985 18 5.84985V10.1461C13.7037 10.1461 10.2963 13.5536 10.2963 17.8499C10.2963 22.1462 13.7037 25.5536 18 25.5536C22.1481 25.5536 25.7037 22.1462 25.7037 17.8499H30C30 24.5165 24.6667 29.8499 18 29.8499C11.3333 29.8499 6 24.5165 6 17.8499Z" fill="black"/>
<path d="M12.6666 17.8499C12.6666 14.887 15.037 12.5166 18 12.5166C20.9629 12.5166 23.3333 14.887 23.3333 17.8499C23.3333 20.8129 20.9629 23.1833 18 23.1833C15.037 23.1833 12.6666 20.8129 12.6666 17.8499Z" fill="black"/>
<path d="M21.7038 11.0352C21.7038 9.40555 23.0371 7.92407 24.8149 7.92407C26.4445 7.92407 27.926 9.25741 27.926 11.0352C27.926 12.6648 26.5927 14.1463 24.8149 14.1463C23.0371 14.1463 21.7038 12.813 21.7038 11.0352Z" fill="black"/>
</svg>
