<svg width="24" height="24" viewBox="0 0 24 24" fill="none" xmlns="http://www.w3.org/2000/svg">
<path fill-rule="evenodd" clip-rule="evenodd" d="M11 3C11 2.44772 11.4477 2 12 2C12.5523 2 13 2.44772 13 3V6H13.1528C14.1305 6 14.9648 6.70681 15.1256 7.67118L15.8682 12.1267C16.9441 12.4503 17.7784 13.3635 17.9655 14.5212L18.9872 20.8404C19.0753 21.3856 18.7048 21.899 18.1596 21.9872C17.6144 22.0753 17.1009 21.7048 17.0128 21.1596L15.9912 14.8404C15.9134 14.3592 15.5001 14.0047 15.0136 14C15.0028 14.0002 14.9919 14.0002 14.9811 14H13V21C13 21.5523 12.5523 22 12 22C11.4477 22 11 21.5523 11 21V14H9.01882C9.0071 14.0002 8.99534 14.0002 8.98355 14H8.76555C8.26122 14 7.83582 14.3755 7.77327 14.876L6.99226 21.124C6.92376 21.6721 6.42397 22.0608 5.87595 21.9923C5.32793 21.9238 4.9392 21.424 5.00771 20.876L5.78871 14.6279C5.94991 13.3383 6.91429 12.3252 8.142 12.0651L8.87425 7.67123C9.03497 6.70684 9.86936 6 10.847 6H11V3ZM13.8195 12L13.1528 8H10.847L10.1804 12H13.8195Z" fill="#263238"/>
</svg>
