<svg width="36" height="36" viewBox="0 0 36 36" fill="none" xmlns="http://www.w3.org/2000/svg">
<rect width="36" height="36" rx="18" fill="#EE3124"/>
<path d="M18 8C12.4654 8 8 12.4864 8 18C8 23.5136 12.4864 28 18 28C23.5346 28 28 23.5136 28 18C28 12.4864 23.5136 8 18 8ZM18 25.5052C13.87 25.5052 10.4948 22.1509 10.4948 18C10.4948 13.8491 13.849 10.4948 18 10.4948C22.1509 10.4948 25.5052 13.8491 25.5052 18C25.5052 22.1509 22.13 25.5052 18 25.5052Z" fill="white"/>
<path d="M17.4737 9.19731C17.4737 9.78009 17.9415 10.3026 18.6097 10.383C22.1067 10.8251 24.8687 13.317 25.3587 16.472C25.4478 17.0548 26.027 17.4969 26.6729 17.4969C27.4748 17.4969 28.0985 16.8539 27.9871 16.1304C27.3189 11.9304 23.6214 8.59443 18.9661 8.01165C18.1642 7.91117 17.4737 8.47385 17.4737 9.19731Z" fill="black"/>
</svg>
