<svg width="36" height="36" viewBox="0 0 36 36" fill="none" xmlns="http://www.w3.org/2000/svg">
<rect width="36" height="36" rx="18" fill="#F1F2F5"/>
<g clip-path="url(#clip0_35_1627)">
<path d="M18.0377 18.0576L26.4678 26.6903L26.2959 26.847L26.2233 26.9157C23.8627 29.0213 20.7697 30.1156 17.6102 29.9629C14.4507 29.8103 11.4776 28.4228 9.33107 26.0995C7.18456 23.7761 6.0364 20.7026 6.13385 17.541C6.23129 14.3793 7.56656 11.3824 9.85208 9.1956C12.2019 7.04518 15.3044 5.90714 18.4874 6.02802C21.6704 6.1489 24.6776 7.51897 26.8576 9.84143L18.0377 18.0576Z" fill="#01B94F"/>
<path d="M9.85971 9.19187C12.2092 7.04332 15.3105 5.90678 18.492 6.02837C21.6734 6.14997 24.6789 7.51991 26.8576 9.84152C26.8576 9.84152 19.8452 16.4068 19.7038 16.5214C19.7038 16.5214 18.1332 18.0004 18.1446 18.0233C18.1561 18.0462 26.4525 26.656 26.4525 26.656L26.2844 26.8165L26.2118 26.8853C21.2591 31.2417 13.6697 31.043 9.18713 26.1974C7.03445 23.8468 5.89734 20.7411 6.02331 17.5562C6.14927 14.3713 7.52811 11.3651 9.85971 9.19187Z" fill="url(#paint0_radial_35_1627)"/>
<path d="M9.86349 9.18428C12.2149 7.03857 15.3163 5.90461 18.4972 6.02761C21.6781 6.15061 24.6827 7.52069 26.8614 9.84157C26.8614 9.84157 20.0362 16.2616 19.7573 16.4871C19.7573 16.4871 18.2287 17.9469 18.2554 17.9928C18.3128 18.1303 26.441 26.6178 26.441 26.6178L26.2729 26.7783L26.2003 26.8471C21.2591 31.1959 13.6659 30.9819 9.19856 26.1516C7.0491 23.8075 5.91291 20.709 6.03746 17.531C6.162 14.353 7.53718 11.353 9.86349 9.18428Z" fill="url(#paint1_radial_35_1627)"/>
<path d="M9.87116 9.18023C12.2227 7.03733 15.3227 5.90549 18.5018 6.02919C21.6808 6.15289 24.6835 7.5222 26.8614 9.84134C26.8614 9.84134 20.2312 16.1124 19.8032 16.4525C19.8032 16.4525 18.3281 17.8894 18.3548 17.9581C18.4427 18.1645 26.4258 26.5832 26.4258 26.5832L26.2538 26.7437L26.1812 26.8087C21.2553 31.146 13.6659 30.9244 9.20623 26.1055C7.06024 23.768 5.92578 20.6766 6.05035 17.5058C6.17492 14.335 7.54841 11.3422 9.87116 9.18023Z" fill="url(#paint2_radial_35_1627)"/>
<path d="M9.87517 9.17659C12.227 7.03535 15.3265 5.90489 18.5046 6.0293C21.6827 6.15371 24.6844 7.52299 26.8616 9.84152C26.8616 9.84152 20.4224 15.9559 19.853 16.4183C19.853 16.4183 18.4238 17.836 18.462 17.9278C18.5767 18.2029 26.4107 26.549 26.4107 26.549L26.2425 26.7057C26.2425 26.7057 26.1699 26.7706 26.1699 26.7745C21.2555 31.0965 13.6661 30.8596 9.21788 26.0598C7.07534 23.7294 5.9419 20.6459 6.06505 17.4827C6.1882 14.3194 7.55794 11.3334 9.87517 9.17659Z" fill="url(#paint3_radial_35_1627)"/>
<path d="M9.88261 9.16883C12.235 7.03088 15.3334 5.90321 18.5097 6.02903C21.686 6.15486 24.6855 7.52408 26.8614 9.84141C26.8614 9.84141 20.6171 15.8182 19.9025 16.3838C19.9025 16.3838 18.5191 17.7786 18.565 17.8932C18.7102 18.2372 26.399 26.5106 26.3952 26.5145L26.227 26.6711L26.1544 26.7399C21.2515 31.0429 13.6659 30.8022 9.22914 26.0139C7.0903 23.6894 5.95845 20.6129 6.08089 17.4565C6.20334 14.3002 7.57013 11.3206 9.88261 9.16883Z" fill="url(#paint4_radial_35_1627)"/>
<path d="M9.88648 9.1652C12.2391 7.0289 15.3371 5.90262 18.5124 6.02915C21.6877 6.15567 24.6862 7.52488 26.8614 9.8416C26.8614 9.8416 20.8082 15.6732 19.9522 16.3381C19.9522 16.3381 18.6147 17.71 18.672 17.8476C18.844 18.2603 26.3838 26.4612 26.3838 26.4612L26.2156 26.6561L26.143 26.721C21.2477 30.9934 13.6659 30.745 9.23683 25.9682C7.10193 23.6504 5.97176 20.5815 6.0935 17.4326C6.21525 14.2838 7.57899 11.3113 9.88648 9.1652Z" fill="url(#paint5_radial_35_1627)"/>
<path d="M9.89413 9.16132C12.2471 7.02667 15.3444 5.90178 18.5189 6.02902C21.6933 6.15625 24.6907 7.52542 26.8653 9.84154C26.8653 9.84154 21.0031 15.5279 20.0057 16.338C20.0057 16.338 18.7103 17.687 18.7752 17.8475C18.993 18.3099 26.3723 26.442 26.3685 26.442L26.2003 26.5987L26.1277 26.6675C21.2477 30.9437 13.6659 30.6838 9.2483 25.9223C7.11637 23.6115 5.98725 20.55 6.10831 17.4084C6.22936 14.2667 7.59071 11.3011 9.89413 9.16132Z" fill="url(#paint6_radial_35_1627)"/>
<path d="M9.89781 9.15374C12.2516 7.02122 15.3487 5.89839 18.5222 6.02704C21.6957 6.1557 24.6917 7.52555 26.8651 9.8416C26.8651 9.8416 21.1941 15.3789 20.0553 16.2846C20.0553 16.2846 18.8056 17.6145 18.8821 17.8132C19.1114 18.3635 26.3569 26.4229 26.353 26.4229C26.3492 26.4229 26.1964 26.572 26.1849 26.5796L26.1123 26.6446C21.2437 30.8941 13.662 30.6266 9.25581 25.8918C7.12191 23.5867 5.9908 20.5286 6.11119 17.3898C6.23158 14.251 7.59362 11.2885 9.89781 9.15374Z" fill="url(#paint7_radial_35_1627)"/>
<path d="M9.9056 9.1497C12.2594 7.02 15.3552 5.89927 18.5268 6.02863C21.6985 6.15798 24.6927 7.52707 26.8653 9.84139C26.8653 9.84139 21.3891 15.2335 20.1051 16.25C20.1051 16.25 18.9013 17.5569 18.9892 17.7786C19.2453 18.3977 26.3417 26.3845 26.3417 26.3883L26.1736 26.545L26.101 26.61C21.2439 30.8595 13.6621 30.5805 9.28652 25.8457C7.1551 23.5493 6.02295 20.5005 6.13904 17.3695C6.25514 14.2386 7.60996 11.2819 9.9056 9.1497Z" fill="url(#paint8_radial_35_1627)"/>
<path d="M9.90935 9.14608C12.2635 7.01802 15.3587 5.89868 18.5294 6.02874C21.7002 6.1588 24.6933 7.52787 26.8652 9.84159C26.8652 9.84159 21.5801 15.0846 20.1394 16.2158C20.1394 16.2158 18.993 17.5036 19.0771 17.7444C19.3751 18.4208 26.3302 26.335 26.3264 26.3389L26.1582 26.4917C26.1582 26.4917 26.0933 26.5529 26.0856 26.5605C21.24 30.7947 13.662 30.5043 9.27117 25.7962C8.21975 24.6611 7.40222 23.33 6.86526 21.8789C6.32831 20.4277 6.08244 18.8851 6.1417 17.339C6.20096 15.7928 6.56419 14.2735 7.21065 12.8678C7.85711 11.462 8.77413 10.1974 9.90935 9.14608Z" fill="url(#paint9_radial_35_1627)"/>
<path d="M9.91717 9.13811C12.2719 7.01333 15.366 5.89677 18.5349 6.02824C21.7038 6.15972 24.6948 7.52874 26.8654 9.84126C26.8654 9.84126 21.7752 14.9391 20.2046 16.1811C20.2046 16.1811 19.0925 17.4498 19.1995 17.7097C19.5129 18.474 26.3151 26.3118 26.3151 26.3156L26.1469 26.4685L26.0743 26.5334C21.2364 30.7447 13.6622 30.4466 9.28663 25.7424C7.16877 23.4567 6.04544 20.4235 6.16369 17.3097C6.28193 14.1959 7.63207 11.2566 9.91717 9.13811Z" fill="url(#paint10_radial_35_1627)"/>
<path d="M9.92086 9.13459C12.2765 7.01122 15.3707 5.89594 18.5393 6.02812C21.7079 6.16029 24.6985 7.52939 26.8691 9.84156C26.8691 9.84156 21.9661 14.8095 20.2541 16.1508C20.2541 16.1508 19.1917 17.3928 19.3026 17.6794C19.6465 18.4934 26.3035 26.2739 26.2997 26.2739L26.1315 26.4306L26.0589 26.4955C21.2362 30.6991 13.6621 30.3934 9.29796 25.7045C8.24986 24.5761 7.43448 23.2522 6.89848 21.8084C6.36248 20.3646 6.11637 18.8294 6.17423 17.2904C6.23208 15.7514 6.59276 14.239 7.23564 12.8395C7.87853 11.4401 8.791 10.1811 9.92086 9.13459Z" fill="url(#paint11_radial_35_1627)"/>
<path d="M9.92854 9.13057C12.2843 7.01001 15.3771 5.89683 18.5438 6.02971C21.7106 6.16258 24.6993 7.53092 26.8691 9.84136C26.8691 9.84136 22.1611 14.6449 20.3038 16.1162C20.3038 16.1162 19.2873 17.3391 19.4096 17.6448C19.7918 18.539 26.2882 26.2393 26.2882 26.2431L26.1201 26.3998C26.1201 26.3998 26.0551 26.4571 26.0513 26.4648C21.2363 30.6684 13.6659 30.3359 9.30946 25.6622C4.95299 20.9886 5.17081 13.445 9.92854 9.13057Z" fill="url(#paint12_radial_35_1627)"/>
<path d="M9.93229 9.12301C12.2888 7.00457 15.3813 5.89345 18.5472 6.02774C21.7131 6.16204 24.7004 7.53106 26.869 9.84144C26.869 9.84144 22.3521 14.4922 20.3725 16.0743C20.3725 16.0743 19.3981 17.2742 19.5318 17.6028C19.9331 18.5659 26.2882 26.1935 26.2882 26.1973L26.12 26.3502L26.0474 26.4151C21.2285 30.592 13.6429 30.2672 9.31703 25.605C4.99114 20.9428 5.18603 13.426 9.93229 9.12301Z" fill="url(#paint13_radial_35_1627)"/>
<path d="M9.93994 9.11925C12.2965 7.00361 15.3877 5.89459 18.5517 6.02958C21.7157 6.16457 24.7012 7.53284 26.869 9.8415C26.869 9.8415 22.547 14.3508 20.4069 16.0476C20.4069 16.0476 19.4783 17.2284 19.6197 17.5762C20.0515 18.6041 26.2538 26.1592 26.2538 26.163L26.0856 26.3158L26.013 26.3808C21.2286 30.5424 13.6429 30.2061 9.32468 25.5592C5.00642 20.9123 5.20132 13.4069 9.93994 9.11925Z" fill="url(#paint14_radial_35_1627)"/>
<path d="M9.94373 9.11539C12.3006 7.0014 15.3912 5.89376 18.5543 6.02946C21.7174 6.16515 24.7018 7.5334 26.869 9.84147C26.869 9.84147 22.738 14.2056 20.4566 16.0131C20.4566 16.0131 19.5738 17.1596 19.7267 17.5417C20.1853 18.6308 26.2538 26.1247 26.2538 26.1286L26.0894 26.2814L26.0168 26.3464C21.2247 30.4774 13.6429 30.1487 9.33611 25.5095C5.02932 20.8702 5.21275 13.3916 9.94373 9.11539Z" fill="url(#paint15_radial_35_1627)"/>
<path d="M9.95145 9.10775C12.3099 6.99772 15.3999 5.89335 18.5615 6.03044C21.7231 6.16753 24.7059 7.53521 26.8729 9.84147C26.8729 9.84147 22.933 14.0451 20.5216 15.9787C20.5216 15.9787 19.6847 17.1252 19.8452 17.5073C20.3191 18.6767 26.2538 26.0865 26.2309 26.0904L26.0627 26.2432C26.0404 26.2668 26.0161 26.2886 25.9901 26.3082C21.2248 30.443 13.643 30.0953 9.34766 25.4675C5.05233 20.8397 5.23576 13.3725 9.95145 9.10775Z" fill="url(#paint16_radial_35_1627)"/>
<path d="M9.95537 9.10401C12.3167 6.99716 15.4085 5.89761 18.5699 6.04044C21.7312 6.18326 24.7113 7.55711 26.873 9.86831C26.873 9.86831 23.1241 13.9114 20.5561 15.9559C20.5561 15.9559 19.7651 17.0718 19.937 17.4845C20.4529 18.7265 26.2195 26.0675 26.2157 26.0713C26.2119 26.0751 26.0743 26.2051 26.0476 26.2242L25.9788 26.2892C21.2211 30.3934 13.6431 30.0265 9.3554 25.4217C5.06772 20.8168 5.23586 13.3535 9.95537 9.10401Z" fill="url(#paint17_radial_35_1627)"/>
<path d="M9.96288 9.1001C12.3234 6.99464 15.4137 5.89592 18.5735 6.03873C21.7333 6.18155 24.712 7.55458 26.8729 9.86439C26.8729 9.86439 23.3189 13.7738 20.6057 15.9252C20.6057 15.9252 19.8605 17.0182 20.0401 17.4538C20.5866 18.7646 26.2079 26.033 26.2003 26.0368L26.036 26.1897L25.9634 26.2547C21.2171 30.3436 13.643 29.9691 9.36674 25.3757C5.09051 20.7823 5.25484 13.3343 9.96288 9.1001Z" fill="url(#paint18_radial_35_1627)"/>
<path d="M9.96664 9.07696C12.3273 6.97358 15.4166 5.87617 18.5752 6.01897C21.7338 6.16176 24.7115 7.53344 26.8728 9.84125C26.8728 9.84125 23.5099 13.6054 20.6591 15.8677C20.6591 15.8677 19.9559 16.9377 20.147 17.3963C20.7202 18.7758 26.1926 25.9755 26.1888 25.9793L26.0206 26.1322L25.948 26.1933C21.217 30.2938 13.6429 29.9078 9.37431 25.3335C5.10573 20.7592 5.27006 13.315 9.96664 9.07696Z" fill="url(#paint19_radial_35_1627)"/>
<path d="M9.97433 9.0772C12.3342 6.97521 15.422 5.87863 18.5791 6.02142C21.7361 6.1642 24.7124 7.53506 26.8729 9.84149C24.973 11.9957 22.9124 14.0026 20.7088 15.845C20.7088 15.845 20.0515 16.8959 20.2541 17.3736C20.854 18.8219 26.1773 25.9452 26.1735 25.9528L26.0092 26.1018L25.9366 26.1668C21.2133 30.2443 13.6429 29.8507 9.38582 25.2879C5.12871 20.725 5.28157 13.2808 9.97433 9.0772Z" fill="url(#paint20_radial_35_1627)"/>
<path d="M9.97809 9.07715C12.3384 6.97608 15.426 5.88011 18.5828 6.02288C21.7395 6.16566 24.7156 7.53589 26.8766 9.84145C25.0033 11.9898 22.9585 13.9822 20.7623 15.7991C20.7623 15.7991 20.1547 16.8271 20.3801 17.3277C21.0107 18.8563 26.1888 25.8992 26.1811 25.9031L26.0168 26.0559L25.9442 26.1209C21.2132 30.1908 13.6429 29.7895 9.3934 25.242C5.14393 20.6944 5.29679 13.2808 9.97809 9.07715Z" fill="url(#paint21_radial_35_1627)"/>
<path d="M9.98578 9.07707C12.3461 6.97923 15.4319 5.88528 18.5865 6.02803C21.7411 6.17077 24.7155 7.53893 26.8767 9.84136C25.0328 11.9912 23.0021 13.9734 20.8082 15.7646C20.8082 15.7646 20.2464 16.7735 20.4643 17.2932C21.1215 18.8944 26.1506 25.8915 26.1468 25.8915C26.143 25.8915 26.013 26.0176 25.9786 26.0444L25.9098 26.1055C21.2094 30.141 13.6429 29.713 9.40492 25.196C5.16691 20.6791 5.30831 13.2807 9.98578 9.07707Z" fill="url(#paint22_radial_35_1627)"/>
<path d="M9.98963 9.07717C12.3497 6.98049 15.4347 5.88725 18.5884 6.02999C21.7421 6.17272 24.7156 7.54016 26.8767 9.84146C25.0627 11.9952 23.0473 13.971 20.8579 15.7418C20.8579 15.7418 20.342 16.7277 20.5674 17.2704C21.2591 18.9251 26.1391 25.8381 26.1315 25.8419L25.9672 25.991L25.8946 26.056C21.2056 30.0952 13.6429 29.6711 9.41641 25.1503C5.18986 20.6295 5.32361 13.2426 9.98963 9.07717Z" fill="url(#paint23_radial_35_1627)"/>
<path d="M9.99346 9.07727C12.3533 6.98174 15.4375 5.88922 18.5902 6.03194C21.743 6.17467 24.7158 7.54138 26.8767 9.84156C25.0937 11.9991 23.092 13.9662 20.9038 15.7113C20.9038 15.7113 20.4337 16.6743 20.6706 17.2399C21.3891 18.9634 26.1201 25.8 26.1162 25.8077L25.9481 25.9567L25.8755 26.0217C21.2056 30.0418 13.643 29.61 9.43934 25.1045C5.23573 20.599 5.33891 13.2236 9.99346 9.07727Z" fill="url(#paint24_radial_35_1627)"/>
<path d="M10.0011 9.07723C12.3605 6.98401 15.443 5.89291 18.5939 6.03562C21.7449 6.17832 24.7161 7.54359 26.8767 9.84153C25.1271 11.9998 23.143 13.957 20.961 15.6769C20.961 15.6769 20.533 16.6208 20.7814 17.2055C21.5457 18.9978 26.1315 25.7656 26.1047 25.7732L25.9404 25.9223L25.8678 25.9834C21.2018 29.9921 13.6429 29.5488 9.43931 25.0586C5.23569 20.5684 5.35033 13.2044 10.0011 9.07723Z" fill="url(#paint25_radial_35_1627)"/>
<path d="M10.0049 9.07731C12.3646 6.98615 15.446 5.89636 18.5957 6.03905C21.7454 6.18173 24.7157 7.54566 26.8767 9.8416C25.1622 12.0046 23.1926 13.9524 21.0107 15.6426C21.0107 15.6426 20.6286 16.5636 20.8846 17.1712C21.6489 19.0322 26.0971 25.7275 26.0894 25.7313C26.0818 25.7351 25.9633 25.8497 25.9251 25.8803L25.8525 25.9453C21.2018 29.9425 13.6429 29.4916 9.4393 25.0128C5.23568 20.5341 5.36561 13.1854 10.0049 9.07731Z" fill="url(#paint26_radial_35_1627)"/>
<path d="M10.0124 9.0543C12.3748 6.96719 15.4571 5.88211 18.606 6.02906C21.7548 6.17602 24.7227 7.54347 26.8804 9.84153C26.8804 9.84153 25.0537 12.4401 21.0603 15.6081C21.0603 15.6081 20.724 16.51 20.9915 17.1367C21.794 19.0474 26.0817 25.693 26.0779 25.6968L25.9097 25.8458L25.8409 25.9108C21.1979 29.8928 13.6428 29.4304 9.43921 24.9669C5.2356 20.5034 5.377 13.1662 10.0124 9.0543Z" fill="url(#paint27_radial_35_1627)"/>
<path d="M10.0164 9.04653C12.38 6.96244 15.4618 5.88 18.6095 6.02836C21.7571 6.17672 24.7235 7.54424 26.8806 9.84139C26.8806 9.84139 25.2488 12.2795 21.1101 15.5736C20.9559 16.0715 20.9559 16.6043 21.1101 17.1022C21.9432 19.1008 26.078 25.6508 26.078 25.6585L25.9137 25.8075L25.8411 25.8686C21.1942 29.843 13.643 29.3729 9.46612 24.9247C5.28926 20.4765 5.39244 13.1508 10.0164 9.04653Z" fill="url(#paint28_radial_35_1627)"/>
<path d="M10.024 9.04288C12.3868 6.95975 15.4676 5.87819 18.6141 6.02727C21.7605 6.17635 24.7253 7.54437 26.8805 9.84156C26.8805 9.84156 25.4398 12.1344 21.1483 15.5241C21.0133 16.0269 21.0279 16.5581 21.1903 17.0527C22.0502 19.1468 26.0551 25.628 26.0474 25.6357L25.8831 25.7847L25.8143 25.8459C21.1941 29.7934 13.6429 29.331 9.4737 24.879C5.30448 20.427 5.40766 13.1318 10.024 9.04288Z" fill="url(#paint29_radial_35_1627)"/>
<path d="M10.0279 9.03881C12.391 6.95732 15.4713 5.87713 18.6168 6.02692C21.7623 6.1767 24.726 7.54471 26.8806 9.84132C26.8806 9.84132 25.6348 12.0004 21.2095 15.5086C21.1031 16.0174 21.1361 16.5455 21.3051 17.0371C22.1955 19.1733 26.0437 25.5819 26.0361 25.5896L25.8717 25.7348L25.7991 25.7998C21.1904 29.7435 13.643 29.2505 9.48528 24.8329C5.26256 20.3542 5.41924 13.1125 10.0279 9.03881Z" fill="url(#paint30_radial_35_1627)"/>
<path d="M10.0354 9.0314C12.3995 6.95409 15.4785 5.87724 18.6219 6.02842C21.7653 6.1796 24.7267 7.54696 26.8805 9.84156C26.8805 9.84156 25.8258 11.8402 21.2591 15.4591C21.1803 15.9734 21.2329 16.4992 21.412 16.9877C22.3291 19.1927 26.0283 25.5325 26.0207 25.5363L25.8563 25.6854L25.7837 25.7465C21.198 29.6635 13.6506 29.1858 9.4928 24.7606C5.33504 20.3353 5.4344 13.0936 10.0354 9.0314Z" fill="url(#paint31_radial_35_1627)"/>
<path d="M10.0394 9.02746C12.4043 6.95153 15.4834 5.87594 18.6265 6.02782C21.7697 6.1797 24.7307 7.54716 26.8844 9.84143C26.8844 9.84143 26.0208 11.691 21.3127 15.4246C21.2612 15.9432 21.3319 16.4668 21.5191 16.9532C22.463 19.2575 26.0131 25.5094 26.0055 25.5286L25.8412 25.6776L25.7724 25.7387C21.1866 29.6405 13.6431 29.1322 9.50442 24.7452C5.3008 20.2893 5.44984 13.0744 10.0394 9.02746Z" fill="url(#paint32_radial_35_1627)"/>
<path d="M10.047 9.02379C12.4116 6.94973 15.4895 5.87562 18.6311 6.02821C21.7726 6.18079 24.732 7.54814 26.8844 9.84158C26.8844 9.84158 26.2118 11.5612 21.3624 15.4056C21.3407 15.9278 21.4293 16.4486 21.6222 16.9342C22.5967 19.2921 26.0016 25.4867 25.994 25.5096L25.8297 25.6548L25.7571 25.716C21.1828 29.5909 13.643 29.075 9.51201 24.6956C5.31986 20.2551 5.46126 13.0554 10.047 9.02379Z" fill="url(#paint33_radial_35_1627)"/>
<path d="M10.0509 9.01603C12.4166 6.945 15.4941 5.87352 18.6345 6.02751C21.7748 6.1815 24.7327 7.54892 26.8845 9.84147C26.8845 9.84147 26.4068 11.4121 21.4121 15.3711C21.4203 15.9023 21.5279 16.4272 21.7293 16.9188C22.7343 19.3302 25.9864 25.4522 25.9788 25.4598L25.8144 25.605L25.7457 25.6662C21.1828 29.5411 13.6431 29.0138 9.52353 24.6496C5.33902 20.2244 5.47659 13.0362 10.0509 9.01603Z" fill="url(#paint34_radial_35_1627)"/>
<path d="M10.0584 9.01217C12.4255 6.94928 15.5002 5.88463 18.6361 6.04214C21.7719 6.19964 24.7245 7.56702 26.8729 9.85671C26.8729 9.85671 26.5863 11.2668 21.4502 15.3367C21.4946 15.8696 21.6236 16.3921 21.8324 16.8844C22.868 19.3683 25.9749 25.4177 25.9672 25.4254L25.8029 25.5706C25.777 25.5889 25.7527 25.6093 25.7303 25.6317C21.1789 29.4914 13.643 28.9488 9.5349 24.6038C5.35804 20.19 5.48797 13.0209 10.0584 9.01217Z" fill="url(#paint35_radial_35_1627)"/>
<path d="M10.0621 9.00852C12.4292 6.9452 15.5044 5.88062 18.6406 6.03886C21.7767 6.19709 24.7292 7.56578 26.8766 9.85688C26.8766 9.85688 26.7849 11.1218 21.5036 15.3025C21.5786 15.836 21.7225 16.3575 21.9316 16.854C23.0016 19.3953 25.9594 25.3797 25.9518 25.3873L25.7875 25.5325C25.7645 25.5325 25.7378 25.5784 25.7149 25.5937C21.175 29.4419 13.6428 28.8954 9.5424 24.5581C5.377 20.1596 5.50311 13.002 10.0621 9.00852Z" fill="url(#paint36_radial_35_1627)"/>
<path d="M10.0698 9.00066C12.4386 6.94011 15.514 5.87805 18.6496 6.03768C21.7852 6.19731 24.7369 7.5662 26.8842 9.85667C26.8842 9.85667 26.9836 10.9878 21.5609 15.2717C21.672 15.8026 21.8358 16.3211 22.0501 16.8194C23.1392 19.4409 25.9518 25.3451 25.9403 25.3527C25.9289 25.3604 25.8295 25.4559 25.776 25.4979L25.7072 25.5591C21.1788 29.3997 13.6428 28.8341 9.55388 24.512C5.3923 20.1249 5.51841 12.9826 10.0698 9.00066Z" fill="url(#paint37_radial_35_1627)"/>
<path d="M10.0737 8.997C12.4432 6.9365 15.5193 5.87517 18.6552 6.03625C21.7911 6.19732 24.7423 7.56823 26.8882 9.86065C26.8882 9.86065 27.1786 10.8275 21.6146 15.2375C21.7574 15.7662 21.9362 16.2846 22.1496 16.789C23.2693 19.464 25.9328 25.3109 25.9252 25.3185L25.7608 25.4637L25.6882 25.5249C21.1751 29.331 13.643 28.7731 9.56166 24.4701C5.41155 20.0907 5.53001 12.9637 10.0737 8.997Z" fill="url(#paint38_radial_35_1627)"/>
<path d="M10.0815 8.99308C12.4514 6.93307 15.5279 5.87241 18.6638 6.03419C21.7997 6.19597 24.7506 7.5676 26.896 9.86056C26.896 9.86056 27.3698 10.6784 21.6682 15.1915C21.6682 15.1915 21.8784 15.8335 22.2605 16.743C23.407 19.5021 25.9215 25.2649 25.9139 25.2725L25.7495 25.4177L25.6807 25.4751C21.1714 29.2927 13.6431 28.7157 9.57325 24.4242C5.43078 20.0562 5.54542 12.9445 10.0815 8.99308Z" fill="url(#paint39_radial_35_1627)"/>
<path d="M25.8947 25.2496C21.4312 29.2621 13.7157 28.7309 9.58087 24.363C5.44604 19.995 5.55686 12.8986 10.0853 8.97011C12.4566 6.91196 15.5334 5.85322 18.669 6.01641C21.8047 6.17961 24.7549 7.55204 26.8998 9.84523C26.8998 9.84523 27.5762 10.5178 21.7255 15.1532C21.714 15.1685 25.91 25.2381 25.8947 25.2496Z" fill="url(#paint40_radial_35_1627)"/>
<path d="M21.5457 15.2976C19.7152 16.7994 17.4644 18.5688 14.8467 20.5521C16.7913 22.6551 19.0529 24.4409 21.5495 25.8449C23.6934 26.9913 25.371 27.2053 26.1926 26.4792C27.0142 25.7531 26.9149 24.0793 25.9595 21.8935C24.8284 19.4854 23.3404 17.2617 21.5457 15.2976Z" fill="url(#paint41_linear_35_1627)"/>
<path d="M21.71 15.1487L20.7929 15.913C22.4722 17.759 23.8682 19.844 24.9354 22.0999C25.8716 24.2552 25.8487 25.3367 25.5468 25.608C25.2449 25.8794 23.9418 25.9482 21.8591 24.8437C19.552 23.5354 17.4654 21.8718 15.6759 19.9141L14.6518 20.6783L14.8925 20.9115C19.2299 25.394 23.9227 27.9468 25.9863 27.0182C26.0474 26.9876 26.1086 26.957 26.1659 26.9226H26.1888C26.2686 26.8731 26.344 26.8169 26.4143 26.7545C26.4887 26.6872 26.5565 26.613 26.6168 26.5328C27.9658 24.7635 25.9175 19.9981 21.8362 15.3283L21.71 15.1487Z" fill="#84EEB1"/>
</g>
<defs>
<radialGradient id="paint0_radial_35_1627" cx="0" cy="0" r="1" gradientUnits="userSpaceOnUse" gradientTransform="translate(21.0828 7.3597) rotate(-2.29061) scale(55.0157 40.7126)">
<stop stop-color="#03BA50"/>
<stop offset="0.8" stop-color="#01B64E"/>
</radialGradient>
<radialGradient id="paint1_radial_35_1627" cx="0" cy="0" r="1" gradientUnits="userSpaceOnUse" gradientTransform="translate(21.0772 7.35532) rotate(-2.29061) scale(54.901 40.6277)">
<stop stop-color="#04BC50"/>
<stop offset="0.8" stop-color="#01B34D"/>
</radialGradient>
<radialGradient id="paint2_radial_35_1627" cx="0" cy="0" r="1" gradientUnits="userSpaceOnUse" gradientTransform="translate(21.0641 7.36541) rotate(-2.29061) scale(54.7863 40.5427)">
<stop stop-color="#06BD51"/>
<stop offset="0.72" stop-color="#02B24C"/>
<stop offset="0.8" stop-color="#01B04B"/>
</radialGradient>
<radialGradient id="paint3_radial_35_1627" cx="0" cy="0" r="1" gradientUnits="userSpaceOnUse" gradientTransform="translate(21.0437 7.38287) rotate(-2.29061) scale(54.6716 40.4579)">
<stop stop-color="#08BF52"/>
<stop offset="0.56" stop-color="#04B44D"/>
<stop offset="0.8" stop-color="#01AD4A"/>
</radialGradient>
<radialGradient id="paint4_radial_35_1627" cx="0" cy="0" r="1" gradientUnits="userSpaceOnUse" gradientTransform="translate(21.0229 7.39933) rotate(-2.29061) scale(54.5568 40.3729)">
<stop stop-color="#0AC053"/>
<stop offset="0.48" stop-color="#05B54E"/>
<stop offset="0.8" stop-color="#01AA49"/>
</radialGradient>
<radialGradient id="paint5_radial_35_1627" cx="0" cy="0" r="1" gradientUnits="userSpaceOnUse" gradientTransform="translate(20.9989 7.44083) rotate(-1.71836) scale(54.4192 40.283)">
<stop stop-color="#0BC253"/>
<stop offset="0.42" stop-color="#07B74E"/>
<stop offset="0.8" stop-color="#01A848"/>
</radialGradient>
<radialGradient id="paint6_radial_35_1627" cx="0" cy="0" r="1" gradientUnits="userSpaceOnUse" gradientTransform="translate(20.9672 7.45121) rotate(-1.71836) scale(54.3046 40.198)">
<stop stop-color="#0DC354"/>
<stop offset="0.37" stop-color="#08B84F"/>
<stop offset="0.8" stop-color="#01A546"/>
</radialGradient>
<radialGradient id="paint7_radial_35_1627" cx="0" cy="0" r="1" gradientUnits="userSpaceOnUse" gradientTransform="translate(21.3707 7.46194) rotate(-1.71836) scale(54.1898 40.0969)">
<stop stop-color="#0FC555"/>
<stop offset="0.33" stop-color="#0ABA50"/>
<stop offset="0.8" stop-color="#01A245"/>
</radialGradient>
<radialGradient id="paint8_radial_35_1627" cx="0" cy="0" r="1" gradientUnits="userSpaceOnUse" gradientTransform="translate(21.3306 7.4811) rotate(-1.70136) scale(54.6154 40.0121)">
<stop stop-color="#11C656"/>
<stop offset="0.3" stop-color="#0CBB51"/>
<stop offset="0.8" stop-color="#019F44"/>
</radialGradient>
<radialGradient id="paint9_radial_35_1627" cx="0" cy="0" r="1" gradientUnits="userSpaceOnUse" gradientTransform="translate(21.3171 7.5009) rotate(-1.70135) scale(54.4996 39.9272)">
<stop stop-color="#12C856"/>
<stop offset="0.28" stop-color="#0EBD51"/>
<stop offset="0.77" stop-color="#029E44"/>
<stop offset="0.8" stop-color="#019C43"/>
</radialGradient>
<radialGradient id="paint10_radial_35_1627" cx="0" cy="0" r="1" gradientUnits="userSpaceOnUse" gradientTransform="translate(21.3038 7.52705) rotate(-1.70135) scale(54.3799 39.8395)">
<stop stop-color="#14C957"/>
<stop offset="0.26" stop-color="#0FBE52"/>
<stop offset="0.72" stop-color="#049F44"/>
<stop offset="0.8" stop-color="#019941"/>
</radialGradient>
<radialGradient id="paint11_radial_35_1627" cx="0" cy="0" r="1" gradientUnits="userSpaceOnUse" gradientTransform="translate(21.2789 7.55984) rotate(-1.70136) scale(54.264 39.7547)">
<stop stop-color="#16CB58"/>
<stop offset="0.24" stop-color="#11C053"/>
<stop offset="0.66" stop-color="#06A145"/>
<stop offset="0.8" stop-color="#019640"/>
</radialGradient>
<radialGradient id="paint12_radial_35_1627" cx="0" cy="0" r="1" gradientUnits="userSpaceOnUse" gradientTransform="translate(21.2503 7.59507) rotate(-1.70135) scale(54.1482 39.6698)">
<stop stop-color="#18CC59"/>
<stop offset="0.23" stop-color="#13C154"/>
<stop offset="0.62" stop-color="#07A246"/>
<stop offset="0.8" stop-color="#01933F"/>
</radialGradient>
<radialGradient id="paint13_radial_35_1627" cx="0" cy="0" r="1" gradientUnits="userSpaceOnUse" gradientTransform="translate(21.2216 7.63745) rotate(-1.70135) scale(54.0285 39.5821)">
<stop stop-color="#19CD59"/>
<stop offset="0.21" stop-color="#15C254"/>
<stop offset="0.59" stop-color="#09A347"/>
<stop offset="0.8" stop-color="#01903E"/>
</radialGradient>
<radialGradient id="paint14_radial_35_1627" cx="0" cy="0" r="1" gradientUnits="userSpaceOnUse" gradientTransform="translate(21.1853 7.68287) rotate(-1.70135) scale(53.9127 39.4972)">
<stop stop-color="#1BCF5A"/>
<stop offset="0.2" stop-color="#17C455"/>
<stop offset="0.56" stop-color="#0BA547"/>
<stop offset="0.8" stop-color="#018D3C"/>
</radialGradient>
<radialGradient id="paint15_radial_35_1627" cx="0" cy="0" r="1" gradientUnits="userSpaceOnUse" gradientTransform="translate(21.1453 7.5168) rotate(-1.13442) scale(53.7836 39.4114)">
<stop stop-color="#1DD05B"/>
<stop offset="0.19" stop-color="#18C556"/>
<stop offset="0.54" stop-color="#0CA648"/>
<stop offset="0.8" stop-color="#018B3B"/>
</radialGradient>
<radialGradient id="paint16_radial_35_1627" cx="0" cy="0" r="1" gradientUnits="userSpaceOnUse" gradientTransform="translate(21.1015 7.55126) rotate(-1.13442) scale(53.6639 39.3238)">
<stop stop-color="#1ED25B"/>
<stop offset="0.18" stop-color="#1AC756"/>
<stop offset="0.51" stop-color="#0EA848"/>
<stop offset="0.8" stop-color="#01883A"/>
</radialGradient>
<radialGradient id="paint17_radial_35_1627" cx="0" cy="0" r="1" gradientUnits="userSpaceOnUse" gradientTransform="translate(21.0578 7.5849) rotate(-1.13442) scale(53.5481 39.2389)">
<stop stop-color="#20D35C"/>
<stop offset="0.18" stop-color="#1BC857"/>
<stop offset="0.49" stop-color="#0FA949"/>
<stop offset="0.8" stop-color="#018539"/>
</radialGradient>
<radialGradient id="paint18_radial_35_1627" cx="0" cy="0" r="1" gradientUnits="userSpaceOnUse" gradientTransform="translate(21.0063 7.63189) rotate(-1.13442) scale(53.4323 39.154)">
<stop stop-color="#22D55D"/>
<stop offset="0.17" stop-color="#1DCA58"/>
<stop offset="0.47" stop-color="#11AB4A"/>
<stop offset="0.8" stop-color="#018237"/>
</radialGradient>
<radialGradient id="paint19_radial_35_1627" cx="0" cy="0" r="1" gradientUnits="userSpaceOnUse" gradientTransform="translate(20.9471 7.67509) rotate(-1.13442) scale(53.3126 39.0664)">
<stop stop-color="#24D65E"/>
<stop offset="0.16" stop-color="#1FCB59"/>
<stop offset="0.45" stop-color="#13AC4B"/>
<stop offset="0.8" stop-color="#017F36"/>
</radialGradient>
<radialGradient id="paint20_radial_35_1627" cx="0" cy="0" r="1" gradientUnits="userSpaceOnUse" gradientTransform="translate(20.8843 7.72837) rotate(-1.13442) scale(53.1968 38.9815)">
<stop stop-color="#25D85E"/>
<stop offset="0.15" stop-color="#20CD59"/>
<stop offset="0.43" stop-color="#14AE4B"/>
<stop offset="0.79" stop-color="#017D36"/>
<stop offset="0.8" stop-color="#007C35"/>
</radialGradient>
<radialGradient id="paint21_radial_35_1627" cx="0" cy="0" r="1" gradientUnits="userSpaceOnUse" gradientTransform="translate(22.0409 7.78817) rotate(-1.13442) scale(53.081 38.8862)">
<stop stop-color="#27D95F"/>
<stop offset="0.15" stop-color="#22CE5A"/>
<stop offset="0.42" stop-color="#16AF4C"/>
<stop offset="0.77" stop-color="#027E36"/>
<stop offset="0.8" stop-color="#007934"/>
</radialGradient>
<radialGradient id="paint22_radial_35_1627" cx="0" cy="0" r="1" gradientUnits="userSpaceOnUse" gradientTransform="translate(21.6456 7.84984) rotate(-1.1233) scale(53.4855 38.7986)">
<stop stop-color="#29DB60"/>
<stop offset="0.14" stop-color="#24D05B"/>
<stop offset="0.4" stop-color="#18B14D"/>
<stop offset="0.74" stop-color="#048037"/>
<stop offset="0.8" stop-color="#007632"/>
</radialGradient>
<radialGradient id="paint23_radial_35_1627" cx="0" cy="0" r="1" gradientUnits="userSpaceOnUse" gradientTransform="translate(21.599 7.91857) rotate(-1.1233) scale(53.3686 38.7138)">
<stop stop-color="#2BDC61"/>
<stop offset="0.14" stop-color="#26D15C"/>
<stop offset="0.39" stop-color="#1AB24E"/>
<stop offset="0.71" stop-color="#068138"/>
<stop offset="0.8" stop-color="#007331"/>
</radialGradient>
<radialGradient id="paint24_radial_35_1627" cx="0" cy="0" r="1" gradientUnits="userSpaceOnUse" gradientTransform="translate(21.5523 7.99404) rotate(-1.1233) scale(53.2477 38.6261)">
<stop stop-color="#2CDE61"/>
<stop offset="0.13" stop-color="#27D35C"/>
<stop offset="0.37" stop-color="#1BB44E"/>
<stop offset="0.69" stop-color="#088339"/>
<stop offset="0.8" stop-color="#007030"/>
</radialGradient>
<radialGradient id="paint25_radial_35_1627" cx="0" cy="0" r="1" gradientUnits="userSpaceOnUse" gradientTransform="translate(21.5016 7.6114) rotate(-0.561705) scale(53.1231 38.5417)">
<stop stop-color="#2EDF62"/>
<stop offset="0.13" stop-color="#29D45D"/>
<stop offset="0.37" stop-color="#1DB54F"/>
<stop offset="0.67" stop-color="#098439"/>
<stop offset="0.8" stop-color="#006E2F"/>
</radialGradient>
<radialGradient id="paint26_radial_35_1627" cx="0" cy="0" r="1" gradientUnits="userSpaceOnUse" gradientTransform="translate(21.4432 7.67127) rotate(-0.561705) scale(53.0062 38.4569)">
<stop stop-color="#30E163"/>
<stop offset="0.13" stop-color="#2BD65E"/>
<stop offset="0.35" stop-color="#1FB750"/>
<stop offset="0.65" stop-color="#0B8639"/>
<stop offset="0.8" stop-color="#006B2D"/>
</radialGradient>
<radialGradient id="paint27_radial_35_1627" cx="0" cy="0" r="1" gradientUnits="userSpaceOnUse" gradientTransform="translate(21.3846 7.7377) rotate(-0.561706) scale(52.8853 38.3692)">
<stop stop-color="#31E263"/>
<stop offset="0.12" stop-color="#2CD75E"/>
<stop offset="0.34" stop-color="#20B850"/>
<stop offset="0.63" stop-color="#0D873A"/>
<stop offset="0.8" stop-color="#00682C"/>
</radialGradient>
<radialGradient id="paint28_radial_35_1627" cx="0" cy="0" r="1" gradientUnits="userSpaceOnUse" gradientTransform="translate(21.3186 7.80696) rotate(-0.561705) scale(52.7684 38.2843)">
<stop stop-color="#33E364"/>
<stop offset="0.12" stop-color="#2ED85F"/>
<stop offset="0.34" stop-color="#22B951"/>
<stop offset="0.62" stop-color="#0E883B"/>
<stop offset="0.8" stop-color="#00652B"/>
</radialGradient>
<radialGradient id="paint29_radial_35_1627" cx="0" cy="0" r="1" gradientUnits="userSpaceOnUse" gradientTransform="translate(21.2484 7.88226) rotate(-0.561705) scale(52.6475 38.1967)">
<stop stop-color="#35E565"/>
<stop offset="0.12" stop-color="#30DA60"/>
<stop offset="0.33" stop-color="#24BB52"/>
<stop offset="0.6" stop-color="#108A3C"/>
<stop offset="0.8" stop-color="#00622A"/>
</radialGradient>
<radialGradient id="paint30_radial_35_1627" cx="0" cy="0" r="1" gradientUnits="userSpaceOnUse" gradientTransform="translate(21.1783 7.96001) rotate(-0.561705) scale(52.5306 38.1118)">
<stop stop-color="#37E666"/>
<stop offset="0.11" stop-color="#32DB61"/>
<stop offset="0.32" stop-color="#26BC53"/>
<stop offset="0.59" stop-color="#128B3C"/>
<stop offset="0.8" stop-color="#005F28"/>
</radialGradient>
<radialGradient id="paint31_radial_35_1627" cx="0" cy="0" r="1" gradientUnits="userSpaceOnUse" gradientTransform="translate(21.1002 8.04501) rotate(-0.561705) scale(52.4098 38.0241)">
<stop stop-color="#38E866"/>
<stop offset="0.11" stop-color="#33DD61"/>
<stop offset="0.31" stop-color="#27BE53"/>
<stop offset="0.57" stop-color="#148D3D"/>
<stop offset="0.8" stop-color="#005C27"/>
</radialGradient>
<radialGradient id="paint32_radial_35_1627" cx="0" cy="0" r="1" gradientUnits="userSpaceOnUse" gradientTransform="translate(21.0185 8.13533) rotate(-0.561706) scale(52.2928 37.9393)">
<stop stop-color="#3AE967"/>
<stop offset="0.11" stop-color="#35DE62"/>
<stop offset="0.3" stop-color="#29BF54"/>
<stop offset="0.56" stop-color="#158E3E"/>
<stop offset="0.8" stop-color="#005926"/>
</radialGradient>
<radialGradient id="paint33_radial_35_1627" cx="0" cy="0" r="1" gradientUnits="userSpaceOnUse" gradientTransform="translate(20.9366 8.22884) rotate(-0.561705) scale(52.1759 37.8545)">
<stop stop-color="#3CEB68"/>
<stop offset="0.11" stop-color="#37E063"/>
<stop offset="0.29" stop-color="#2BC155"/>
<stop offset="0.54" stop-color="#17903F"/>
<stop offset="0.8" stop-color="#005625"/>
</radialGradient>
<radialGradient id="paint34_radial_35_1627" cx="0" cy="0" r="1" gradientUnits="userSpaceOnUse" gradientTransform="translate(20.843 8.32886) rotate(-0.561705) scale(52.055 37.7668)">
<stop stop-color="#3EEC69"/>
<stop offset="0.1" stop-color="#39E164"/>
<stop offset="0.29" stop-color="#2DC256"/>
<stop offset="0.53" stop-color="#19913F"/>
<stop offset="0.8" stop-color="#005323"/>
</radialGradient>
<radialGradient id="paint35_radial_35_1627" cx="0" cy="0" r="1" gradientUnits="userSpaceOnUse" gradientTransform="translate(20.7494 7.7342) scale(51.9356 37.6787)">
<stop stop-color="#3FEE69"/>
<stop offset="0.1" stop-color="#3AE364"/>
<stop offset="0.28" stop-color="#2EC456"/>
<stop offset="0.52" stop-color="#1A9340"/>
<stop offset="0.8" stop-color="#005122"/>
</radialGradient>
<radialGradient id="paint36_radial_35_1627" cx="0" cy="0" r="1" gradientUnits="userSpaceOnUse" gradientTransform="translate(21.9754 7.81798) scale(52.3228 37.5911)">
<stop stop-color="#41EF6A"/>
<stop offset="0.1" stop-color="#3CE465"/>
<stop offset="0.28" stop-color="#30C557"/>
<stop offset="0.51" stop-color="#1C9441"/>
<stop offset="0.79" stop-color="#015022"/>
<stop offset="0.8" stop-color="#004E21"/>
</radialGradient>
<radialGradient id="paint37_radial_35_1627" cx="0" cy="0" r="1" gradientUnits="userSpaceOnUse" gradientTransform="translate(21.8998 7.90802) scale(52.2086 37.5091)">
<stop stop-color="#43F16B"/>
<stop offset="0.1" stop-color="#3EE666"/>
<stop offset="0.27" stop-color="#32C758"/>
<stop offset="0.5" stop-color="#1E9642"/>
<stop offset="0.77" stop-color="#035223"/>
<stop offset="0.8" stop-color="#004B20"/>
</radialGradient>
<radialGradient id="paint38_radial_35_1627" cx="0" cy="0" r="1" gradientUnits="userSpaceOnUse" gradientTransform="translate(21.8282 8.0041) scale(52.0905 37.4243)">
<stop stop-color="#45F26C"/>
<stop offset="0.1" stop-color="#40E767"/>
<stop offset="0.27" stop-color="#34C859"/>
<stop offset="0.49" stop-color="#209742"/>
<stop offset="0.76" stop-color="#055323"/>
<stop offset="0.8" stop-color="#00481E"/>
</radialGradient>
<radialGradient id="paint39_radial_35_1627" cx="0" cy="0" r="1" gradientUnits="userSpaceOnUse" gradientTransform="translate(21.7526 8.10658) scale(51.9685 37.3366)">
<stop stop-color="#46F46C"/>
<stop offset="0.09" stop-color="#41E967"/>
<stop offset="0.26" stop-color="#35CA59"/>
<stop offset="0.48" stop-color="#229943"/>
<stop offset="0.74" stop-color="#065524"/>
<stop offset="0.8" stop-color="#00451D"/>
</radialGradient>
<radialGradient id="paint40_radial_35_1627" cx="0" cy="0" r="1" gradientUnits="userSpaceOnUse" gradientTransform="translate(21.6806 8.21476) scale(51.8464 37.2489)">
<stop stop-color="#48F56D"/>
<stop offset="0.09" stop-color="#43EA68"/>
<stop offset="0.25" stop-color="#37CB5A"/>
<stop offset="0.47" stop-color="#239A44"/>
<stop offset="0.73" stop-color="#085625"/>
<stop offset="0.8" stop-color="#00421C"/>
</radialGradient>
<linearGradient id="paint41_linear_35_1627" x1="22.524" y1="34.9973" x2="18.0529" y2="2.93516" gradientUnits="userSpaceOnUse">
<stop offset="0.1" stop-color="#FF8475"/>
<stop offset="0.37" stop-color="#E84E43"/>
<stop offset="0.6" stop-color="#D6261F"/>
<stop offset="0.79" stop-color="#CC0E08"/>
<stop offset="0.9" stop-color="#C80500"/>
</linearGradient>
<clipPath id="clip0_35_1627">
<rect width="24" height="24" fill="white" transform="translate(6 6)"/>
</clipPath>
</defs>
</svg>
