<?xml version="1.0" encoding="utf-8"?>
<!-- Generator: Adobe Illustrator 25.4.1, SVG Export Plug-In . SVG Version: 6.00 Build 0)  -->
<svg version="1.1" id="Layer_1" xmlns="http://www.w3.org/2000/svg" xmlns:xlink="http://www.w3.org/1999/xlink" x="0px" y="0px"
	 viewBox="0 0 1800 192.5" style="enable-background:new 0 0 1800 192.5;" xml:space="preserve">
<style type="text/css">
	.st0{fill:#E1192F;}
</style>
<g>
	<path class="st0" d="M1103.3,79.2c-9.4-4.8-20.2-7.2-32.5-7.2h-61.2V40.7h109.6V2.6H963.3v187.2h107.2c12.7,0,23.6-2.6,32.9-7.5
		c9.3-4.9,16.5-11.8,21.8-20.6c5.3-8.8,7.9-19.2,7.9-31.2c0-11.9-2.6-22.3-7.9-31C1119.9,90.8,1112.6,84,1103.3,79.2z M1080.7,147.1
		c-3.7,3.7-9.1,5.6-16,5.6h-55.1v-44.1h55.1c4.5,0,8.3,0.9,11.6,2.7c3.3,1.8,5.8,4.3,7.5,7.5c1.7,3.2,2.5,7.2,2.5,12
		C1086.3,138,1084.4,143.4,1080.7,147.1z"/>
	<path class="st0" d="M1223.6,2.6l-81.1,187.2h47.9l15.3-37.6h82.3l15.2,37.6h50L1272,2.6H1223.6z M1220.9,115.3l26.2-64l26,64
		H1220.9z"/>
	<polygon class="st0" points="1517.5,74.2 1428.2,74.2 1428.2,2.6 1380.6,2.6 1380.6,189.8 1428.2,189.8 1428.2,112.7 1517.5,112.7 
		1517.5,189.8 1564.9,189.8 1564.9,2.6 1517.5,2.6 	"/>
	<polygon class="st0" points="1800,189.8 1708.1,90.1 1796.6,2.6 1739.3,2.6 1661.5,82.8 1661.5,2.6 1615.2,2.6 1615.2,189.8 
		1661.5,189.8 1661.5,105.4 1739.3,189.8 	"/>
	<polygon class="st0" points="188,2.6 135.6,2.6 96.3,62.9 54.9,2.6 0.3,2.6 65.6,93.3 0,189.8 52.7,189.8 92.6,127.7 134.8,189.8 
		189.3,189.8 123,96 	"/>
	<path class="st0" d="M349.7,11.9C334.4,4,316.5,0,295.8,0c-20.7,0-38.7,4-54,11.9c-15.3,7.9-27.1,19.1-35.3,33.4
		c-8.2,14.3-12.3,31.3-12.3,50.9c0,19.4,4.1,36.4,12.3,50.8c8.2,14.4,20,25.6,35.3,33.6c15.3,7.9,33.3,11.9,54,11.9
		c20.7,0,38.6-4,53.9-11.9c15.2-7.9,27-19.1,35.3-33.6c8.3-14.4,12.4-31.4,12.4-50.8c0-19.6-4.1-36.6-12.4-50.9
		C376.7,31,364.9,19.8,349.7,11.9z M342.8,128c-3.9,8.6-9.9,15.2-17.8,19.7c-7.9,4.5-17.7,6.7-29.3,6.7c-11.6,0-21.3-2.2-29-6.7
		c-7.8-4.5-13.6-11-17.6-19.7c-4-8.6-6-19.2-6-31.7c0-12.5,2-23,6-31.7c4-8.6,9.9-15.2,17.7-19.7c7.8-4.5,17.4-6.7,29-6.7
		c11.6,0,21.3,2.3,29.3,6.8c7.9,4.5,13.9,11.1,17.8,19.7c3.9,8.6,5.9,19.1,5.9,31.6C348.7,108.8,346.7,119.3,342.8,128z"/>
	<polygon class="st0" points="498.3,91.9 452.7,2.6 399.3,2.6 472.8,139.3 447.1,189.8 498.2,189.8 592.9,2.6 542.3,2.6 	"/>
	<polygon class="st0" points="787.4,2.6 727.7,113.5 666.8,2.6 614.9,2.6 614.9,189.8 658,189.8 658,68.5 706.6,156.7 747.8,156.7 
		795.4,67.9 795.4,189.8 838.5,189.8 838.5,2.6 	"/>
</g>
</svg>
