<svg width="102" height="20" viewBox="0 0 102 20" fill="none" xmlns="http://www.w3.org/2000/svg">
<path fill-rule="evenodd" clip-rule="evenodd" d="M0.413589 10C0.413589 4.48148 4.88273 0.0123457 10.4012 0V3.61728C6.88273 3.61728 4.03088 6.48148 4.03088 10C4.03088 13.5309 6.89507 16.3827 10.4136 16.3827C13.9198 16.3827 16.7963 13.5556 16.7963 9.97531H20.4136C20.4136 15.5185 15.9445 20 10.4136 20C4.88273 20 0.413589 15.5185 0.413589 10Z" fill="black"/>
<path d="M6.00618 9.99997C6.00618 7.55553 7.99383 5.56787 10.4383 5.56787C12.8827 5.56787 14.8704 7.55553 14.8704 9.99997C14.8704 12.4568 12.8827 14.4321 10.4383 14.4321C7.99383 14.4321 6.00618 12.4568 6.00618 9.99997Z" fill="black"/>
<path d="M13.5124 4.38256C13.5124 2.97515 14.6482 1.83936 16.0556 1.83936C17.463 1.83936 18.5988 2.97515 18.5988 4.38256C18.5988 5.78997 17.463 6.92577 16.0556 6.92577C14.6482 6.92577 13.5124 5.78997 13.5124 4.38256Z" fill="black"/>
<path d="M91.5864 6.90115L91.2778 8.41967C90.5494 11.716 90.2901 12.7777 89.6605 16.0616L89.5247 16.1851L87.5247 16.2468L87.4259 16.111L88.2284 12.7283L88.4629 11.6172C87.5987 11.5925 86.7469 11.5802 85.8827 11.5802C85.216 11.5802 84.6975 11.5925 84.179 11.6049C83.8827 12.9382 83.6358 14.0987 83.2654 16.0616L83.1296 16.1851L81.1296 16.2468L81.0308 16.111L81.8333 12.7283L82.1543 11.2592C82.6852 8.93819 82.7839 8.43201 83.0926 6.29621L83.2284 6.16041C84.142 6.03696 84.3642 5.99992 85.3025 5.80239L85.4012 5.93819L85.1913 6.9135L84.8827 8.43202L84.5617 9.86412C85.2778 9.87646 86.0061 9.8888 86.7345 9.8888C87.5 9.8888 88.0062 9.87646 88.858 9.85177C89.1296 8.59251 89.2407 7.9135 89.4876 6.28387L89.6234 6.14806C90.5494 6.02461 90.7592 5.98757 91.7099 5.79004L91.8086 5.92584L91.5864 6.90115Z" fill="black"/>
<path d="M67.4753 11.3086C67.6111 10.7407 67.7099 10.1604 67.7099 9.61723C67.7099 7.61723 66.4259 7.28389 65.6975 7.28389C62.5988 7.28389 62.2037 12.0987 62.2037 12.8271C62.2037 14.4073 63.1543 15.0987 64.216 15.0987C66.3272 15.0987 67.1173 12.9382 67.4753 11.3086ZM69.5247 11.9259C69.0926 13.6296 67.8827 16.5678 64.179 16.5678C61.5494 16.5678 60.1173 15.2098 60.1173 12.5185C60.1173 12.1728 60.142 11.7901 60.2037 11.3827C60.216 11.2839 60.2284 11.1851 60.2407 11.0864C60.9568 6.64191 62.8827 2.41969 67.1173 2.38266C67.6852 2.37031 68.821 2.32093 69.5988 2.13574L69.3148 3.91352C68.5247 4.11105 67.2901 4.22216 66.5617 4.22216C65.6605 4.23451 65.0432 4.56784 64.6111 4.9876C64.4012 5.18513 64.2284 5.41969 64.1049 5.61722C63.9815 5.81475 63.8827 5.99994 63.821 6.14809C64.3889 5.97525 65.0062 5.86414 65.6975 5.86414C68.2778 5.86414 69.821 7.30858 69.821 9.85179C69.821 10.5308 69.6975 11.2345 69.5247 11.9259Z" fill="black"/>
<path d="M94.9815 10.1111C95.4506 9.70369 95.7222 9.44443 96.3765 8.8148C97.0555 8.14813 98.7345 6.41974 99.0432 6.08641L99.2654 5.9753H101.525L101.586 6.14813C101.389 6.32097 101.29 6.40739 100.5 7.07406C100.191 7.33332 99.9938 7.53085 99.6234 7.86418L97.0679 10.2222L100.117 16.0247L99.9938 16.1852L97.8086 16.2469L97.6481 16.1234C97.142 14.9012 97.0061 14.6296 96.2901 13.1975L94.9074 10.4074C94.4753 12.3333 94.2037 13.5555 93.7222 16.0864L93.5864 16.2099L91.5864 16.2716L91.4876 16.1358L92.2901 12.7531L92.5987 11.2839C93.1296 8.96295 93.2284 8.45678 93.537 6.32097L93.6728 6.18517C94.5987 6.06171 94.8086 6.02468 95.7592 5.82715L95.858 5.96295L95.6481 6.93826L95.3395 8.45677L94.9815 10.1111Z" fill="black"/>
<path d="M77.5987 13.6913C77.3889 13.8642 77.1667 14.0617 76.9444 14.1975C76.4383 14.5185 75.7592 14.6543 75.2284 14.6543C73.4259 14.6543 72.9197 13.1358 72.9197 12.1975C72.9197 12.0988 72.9568 9.55554 75.0308 8.14813C76.1913 7.35801 77.4753 7.32097 78.1296 7.32097C78.4259 7.32097 78.7222 7.33332 79.0185 7.33332L77.5987 13.6913ZM81.3765 5.99999L81.2778 5.83949L78.5494 5.82715C76.7346 5.82715 74.1913 5.93826 72.3518 8.09875C71.5247 9.08641 70.7716 10.7778 70.7716 12.3333C70.7716 14.7901 72.4136 16.2099 74.4259 16.2099C76.1049 16.2099 76.9691 15.4815 77.3025 15.2099L77.1667 16L77.2654 16.1358L79.1173 16.0988L79.2531 15.9629C79.6481 13.6173 79.7839 12.8642 80.4753 9.83949L81.3765 5.99999Z" fill="black"/>
<path d="M29.3642 16.506C27.2284 16.506 24.142 15.827 25.2654 10.8888C25.6852 9.0369 26.9691 5.09863 32.2407 5.09863C37.3642 5.09863 36.5988 9.29616 36.2901 10.7776C35.3395 14.9628 32.7839 16.506 29.3642 16.506ZM30.0679 14.3332C31.5741 14.3332 32.2778 12.7653 32.7346 10.753C33.0556 9.3332 33.4012 7.24678 31.5864 7.24678C30.0432 7.24678 29.3518 8.72826 28.9074 10.753C28.4753 12.6171 28.3765 14.3332 30.0679 14.3332Z" fill="black"/>
<path d="M41.8951 16.2713C40.9074 16.2713 39.2778 16.2713 38.5988 16.296L38.4877 16.1602C38.6729 15.5059 39.142 13.7281 39.6235 11.5676C40.0185 9.81452 40.3642 8.27131 40.5 7.56761C39.6729 7.5923 38.4012 7.5923 37.7716 7.60465L37.6605 7.4565C37.821 6.92564 38.0556 5.99971 38.2037 5.44415L38.3889 5.33304C38.9445 5.35773 41.0309 5.37008 42.7222 5.37008C44.7593 5.37008 46.7469 5.33304 47.1667 5.30835L47.3025 5.41946C47.1543 5.91329 46.8827 6.92564 46.7469 7.43181L46.5494 7.55526C45.7346 7.54292 45.1173 7.54292 43.9321 7.54292C43.8333 7.98736 43.5124 9.30835 42.9815 11.654C42.5864 13.4318 42.2531 15.0491 42.0679 16.0861L41.8951 16.2713Z" fill="black"/>
<path d="M53.3395 7.82687C52.6728 7.82687 51.9321 7.85156 51.5988 7.85156C51.5 8.30835 51.0926 9.99971 50.7222 11.6417C50.2901 13.58 49.8951 15.3948 49.7469 16.1479L49.5494 16.2713C48.537 16.2713 47.2407 16.2713 46.2037 16.296L46.1049 16.1602C46.3148 15.3084 46.858 13.0121 47.3766 10.7158C47.8951 8.40712 48.3519 6.14786 48.4877 5.50588L48.6605 5.35773C49.7716 5.35773 50.8951 5.39477 53.6605 5.39477C55.821 5.39477 57.9198 5.33304 59.0309 5.30835L59.1296 5.43181C58.9815 5.98736 58.3642 8.64169 57.7716 11.2713C57.2901 13.3948 56.8457 15.5059 56.7346 16.1108L56.5864 16.2343C55.6975 16.2343 54.0803 16.2343 53.2284 16.259L53.142 16.1108C53.3272 15.3948 53.7222 13.7281 54.1914 11.6664C54.5494 10.0985 54.8951 8.43181 55.0432 7.81453C54.6852 7.83922 53.9568 7.82687 53.3395 7.82687Z" fill="black"/>
</svg>
