<svg width="136" height="12" viewBox="0 0 136 12" fill="none" xmlns="http://www.w3.org/2000/svg">
<path d="M10.6529 0.681396H7.77505L5.57881 3.88758L3.38257 0.681396H0.550098L4.09433 5.85358L0.307739 11.2676H3.14021L5.57881 7.759L8.04759 11.2676H10.9406L7.12381 5.74777L10.6529 0.681396Z" fill="#F14B3F"/>
<path d="M19.9423 7.35066C19.7756 7.76419 19.5408 8.12204 19.2379 8.42447C18.9349 8.72684 18.584 8.95901 18.1852 9.12009C17.7862 9.28152 17.3495 9.3621 16.8749 9.3621C16.4002 9.3621 15.961 9.28152 15.5573 9.12009C15.1531 8.95901 14.8023 8.72684 14.5045 8.42447C14.2065 8.12204 13.9745 7.76172 13.8078 7.34316C13.6411 6.92489 13.558 6.46872 13.558 5.97461C13.558 5.47053 13.6411 5.01183 13.8078 4.5983C13.9745 4.18503 14.2091 3.82705 14.512 3.52469C14.8151 3.22211 15.1658 2.99029 15.5648 2.82886C15.9636 2.66771 16.4002 2.58686 16.8749 2.58686C17.3495 2.58686 17.7889 2.66771 18.1927 2.82886C18.5967 2.99029 18.9475 3.22211 19.2456 3.52469C19.5432 3.82705 19.7756 4.18503 19.9423 4.5983C20.1088 5.01183 20.1922 5.47053 20.1922 5.97461C20.1922 6.47876 20.1088 6.9374 19.9423 7.35066ZM21.0175 2.05761C20.4974 1.56378 19.8866 1.18056 19.185 0.90831C18.483 0.635989 17.7131 0.5 16.8749 0.5C16.047 0.5 15.2793 0.635989 14.5727 0.90831C13.8658 1.18056 13.2497 1.56378 12.7248 2.05761C12.1996 2.55172 11.7934 3.13143 11.5054 3.7968C11.2177 4.46217 11.0739 5.18811 11.0739 5.97461C11.0739 6.76085 11.2177 7.48692 11.5054 8.15236C11.7934 8.81773 12.197 9.39764 12.7172 9.89148C13.2372 10.3856 13.8531 10.7687 14.5651 11.0408C15.2771 11.313 16.0519 11.4492 16.8901 11.4492C17.718 11.4492 18.483 11.313 19.185 11.0408C19.8866 10.7687 20.4974 10.3881 21.0175 9.89897C21.5376 9.41001 21.944 8.83051 22.2369 8.15985C22.5297 7.48947 22.6761 6.76085 22.6761 5.97461C22.6761 5.17814 22.5297 4.44966 22.2369 3.78931C21.944 3.12902 21.5376 2.55172 21.0175 2.05761Z" fill="#F14B3F"/>
<path d="M28.3079 6.37161L25.4948 0.681396H22.8743L27.0483 8.44933L26.9641 8.57562C26.6509 9.05962 26.2948 9.33951 25.8961 9.41507C25.4971 9.49062 25.0049 9.44284 24.4193 9.27131L23.8287 11.1316C24.5352 11.4237 25.2169 11.5422 25.8734 11.4869C26.5297 11.4314 27.133 11.2022 27.6835 10.7987C28.2337 10.3958 28.7108 9.81581 29.1148 9.05962L33.6285 0.681396H31.2202L28.3079 6.37161Z" fill="#F14B3F"/>
<path d="M44.6354 0.681396L40.7305 7.25478L36.7591 0.681396H34.7295V11.2676H37.0316V5.04706L40.1521 10.1486H41.2425L44.3642 4.9361L44.3779 11.2676H46.6801L46.665 0.681396H44.6354Z" fill="#F14B3F"/>
<path d="M57.4728 5.22013H62.9864C62.7441 3.16346 61.2899 1.83251 58.9877 1.83251C57.8212 1.83251 56.4126 2.42232 55.5947 3.4507L54.6705 2.57351C55.6703 1.24256 57.4425 0.546875 59.0785 0.546875C62.3807 0.546875 64.4104 2.63408 64.4104 5.93108C64.4104 9.0767 62.426 11.4058 58.9573 11.4058C57.4425 11.4058 55.6855 10.8463 54.6404 9.37927L55.5795 8.59276C56.3217 9.59095 57.7456 10.1203 59.033 10.1203C61.3051 10.1203 62.8199 8.62301 63.0016 6.50577H57.4728V5.22013Z" fill="#F14B3F"/>
<path d="M66.1392 0.682861H67.5175V5.79475L72.88 0.682861H74.682L69.6836 5.47705L75.0455 11.2696H73.2284L68.6536 6.38456L67.5175 7.4735V11.2696H66.1392V0.682861Z" fill="#F14B3F"/>
<path d="M84.333 9.54572C83.5301 10.6648 81.9395 11.4058 80.2133 11.4058C76.8654 11.4058 74.7446 9.27339 74.7446 5.97653C74.7446 2.93658 76.82 0.546875 80.1072 0.546875C82.0153 0.546875 83.4696 1.34844 84.1815 2.30132L83.2878 3.16346C82.4697 2.34663 81.5305 1.86269 80.1369 1.86269C77.6683 1.86269 76.1838 3.55671 76.1838 5.97653C76.1838 8.45677 77.835 10.0901 80.3035 10.0901C81.7729 10.0901 82.8182 9.48515 83.5453 8.66846L84.333 9.54572Z" fill="#F14B3F"/>
<path d="M93.3947 1.96874H87.139V11.2699H85.7605V0.683105H94.7732V11.2699H93.3947V1.96874Z" fill="#F14B3F"/>
<path d="M98.4288 1.96874V6.09742H101.125C103.2 6.09742 104.094 5.25049 104.094 3.9953C104.094 2.81568 103.336 1.96874 101.231 1.96874H98.4288ZM97.0503 11.2699V0.683105H101.17C104.715 0.683105 105.518 2.39211 105.518 4.01043C105.518 5.71943 104.397 7.36794 101.155 7.36794H98.4288V11.2699H97.0503Z" fill="#F14B3F"/>
<path d="M107.021 0.682861H114.655V1.9685H108.399V5.2655H114.231V6.52068H108.399V9.9842H114.791V11.2696H107.021V0.682861Z" fill="#F14B3F"/>
<path d="M125.443 9.54572C124.64 10.6648 123.05 11.4058 121.323 11.4058C117.975 11.4058 115.855 9.27339 115.855 5.97653C115.855 2.93658 117.93 0.546875 121.217 0.546875C123.126 0.546875 124.58 1.34844 125.292 2.30132L124.398 3.16346C123.58 2.34663 122.641 1.86269 121.248 1.86269C118.778 1.86269 117.294 3.55671 117.294 5.97653C117.294 8.45677 118.945 10.0901 121.414 10.0901C122.884 10.0901 123.928 9.48515 124.655 8.66846L125.443 9.54572Z" fill="#F14B3F"/>
<path d="M135.692 9.54572C134.89 10.6648 133.299 11.4058 131.572 11.4058C128.225 11.4058 126.104 9.27339 126.104 5.97653C126.104 2.93658 128.179 0.546875 131.466 0.546875C133.375 0.546875 134.829 1.34844 135.541 2.30132L134.647 3.16346C133.829 2.34663 132.89 1.86269 131.496 1.86269C129.028 1.86269 127.543 3.55671 127.543 5.97653C127.543 8.45677 129.194 10.0901 131.663 10.0901C133.132 10.0901 134.178 9.48515 134.905 8.66846L135.692 9.54572Z" fill="#F14B3F"/>
</svg>
