<svg width="82" height="14" viewBox="0 0 82 14" fill="none" xmlns="http://www.w3.org/2000/svg">
<g clip-path="url(#clip0_34_1181)">
<path d="M10.8137 13.4895C10.8137 9.13454 10.8137 4.82252 10.8137 0.510498C7.19475 0.510498 3.59019 0.510498 0 0.510498C0 4.85117 0 9.16319 0 13.4895C0.588792 13.4895 1.16322 13.4895 1.78074 13.4895C1.78074 9.67891 1.78074 5.89694 1.78074 2.10064C4.22207 2.10064 6.63468 2.10064 9.07601 2.10064C9.07601 5.91127 9.07601 9.69324 9.07601 13.4895C9.6648 13.4895 10.2249 13.4895 10.8137 13.4895Z" fill="#EE3124"/>
<path d="M55.849 7.64474C55.8634 7.42985 55.8778 7.21497 55.8778 7.00008C55.8778 6.65627 55.849 6.32678 55.806 5.99729C55.3177 2.70239 52.4743 0.166748 49.0277 0.166748C45.2508 0.166748 42.1776 3.23244 42.1776 7.00008C42.1776 10.7677 45.2508 13.8334 49.0277 13.8334C52.0147 13.8334 54.5422 11.9281 55.49 9.27786H53.6231C52.7902 10.9683 51.0382 12.1143 49.0277 12.1143C46.414 12.1143 44.2455 10.166 43.9296 7.63041L55.849 7.64474ZM49.0277 1.88583C51.5121 1.88583 53.5944 3.66221 54.0683 6.01161H44.0014C44.4609 3.64788 46.5289 1.88583 49.0277 1.88583Z" fill="#EE3124"/>
<path d="M40.5979 11.8707L35.9163 1.38436C35.6865 0.854313 35.1552 0.510498 34.5664 0.510498C33.9776 0.510498 33.4462 0.854313 33.2165 1.38436L28.5348 11.8707H26.9408V13.4895H42.2063V11.8707H40.5979ZM34.5664 2.45879L38.6735 11.8707H30.4592L34.5664 2.45879Z" fill="#EE3124"/>
<path d="M68.946 13.4896L63.8336 1.39877C63.6038 0.868718 63.0868 0.524902 62.4981 0.524902C61.9236 0.524902 61.3923 0.868718 61.1625 1.39877L56.0357 13.4896H57.96L62.4837 2.55914L67.0217 13.4896H68.946Z" fill="#EE3124"/>
<path d="M80.248 0.510498H80.2193L72.4644 11.0255V0.510498H70.7124V13.3893V13.4895H72.4644L80.248 2.94586V13.4895H82V0.582126V0.510498H80.248Z" fill="#EE3124"/>
<path d="M20.0189 0.166748C16.2277 0.166748 13.1688 3.23244 13.1688 7.00008C13.1688 10.7677 16.242 13.8334 20.0189 13.8334C23.8102 13.8334 26.869 10.7677 26.869 7.00008C26.869 3.23244 23.7958 0.166748 20.0189 0.166748ZM20.0189 12.1287C17.1898 12.1287 14.8778 9.83656 14.8778 7.00008C14.8778 4.1636 17.1755 1.8715 20.0189 1.8715C22.8623 1.8715 25.1601 4.1636 25.1601 7.00008C25.1601 9.83656 22.848 12.1287 20.0189 12.1287Z" fill="#EE3124"/>
<path d="M20.0189 1.0835C20.0189 1.49894 20.3205 1.87141 20.7513 1.92871C23.006 2.24387 24.7867 4.02025 25.1026 6.26938C25.1601 6.68482 25.5335 6.99999 25.9499 6.99999C26.4669 6.99999 26.869 6.54157 26.7972 6.02584C26.3664 3.03178 23.9825 0.653727 20.9811 0.238283C20.4641 0.166655 20.0189 0.567773 20.0189 1.0835Z" fill="#263238"/>
</g>
<defs>
<clipPath id="clip0_34_1181">
<rect width="82" height="13.6667" fill="white" transform="translate(0 0.166748)"/>
</clipPath>
</defs>
</svg>
