<svg width="90" height="24" viewBox="0 0 90 24" fill="none" xmlns="http://www.w3.org/2000/svg">
<g clip-path="url(#clip0_34_1186)">
<path d="M12.8948 12.0576L21.3249 20.6903L21.153 20.847L21.0804 20.9157C18.7198 23.0213 15.6268 24.1156 12.4673 23.9629C9.30783 23.8103 6.33469 22.4228 4.18818 20.0995C2.04168 17.7761 0.893514 14.7026 0.990962 11.541C1.08841 8.3793 2.42367 5.38238 4.70919 3.1956C7.05904 1.04518 10.1615 -0.0928626 13.3445 0.02802C16.5275 0.148903 19.5348 1.51897 21.7147 3.84143L12.8948 12.0576Z" fill="#01B94F"/>
<path d="M4.71683 3.19187C7.06634 1.04332 10.1676 -0.0932206 13.3491 0.0283728C16.5305 0.149966 19.536 1.51991 21.7147 3.84152C21.7147 3.84152 14.7023 10.4068 14.5609 10.5214C14.5609 10.5214 12.9903 12.0004 13.0018 12.0233C13.0132 12.0462 21.3096 20.656 21.3096 20.656L21.1415 20.8165L21.0689 20.8853C16.1163 25.2417 8.52683 25.043 4.04425 20.1974C1.89157 17.8468 0.75446 14.7411 0.880424 11.5562C1.00639 8.37132 2.38523 5.3651 4.71683 3.19187Z" fill="url(#paint0_radial_34_1186)"/>
<path d="M4.72061 3.18428C7.07199 1.03857 10.1735 -0.0953904 13.3543 0.0276109C16.5352 0.150612 19.5398 1.52069 21.7185 3.84157C21.7185 3.84157 14.8933 10.2616 14.6144 10.4871C14.6144 10.4871 13.0858 11.9469 13.1125 11.9928C13.1699 12.1303 21.2981 20.6178 21.2981 20.6178L21.13 20.7783L21.0574 20.8471C16.1162 25.1959 8.52297 24.9819 4.05567 20.1516C1.90622 17.8075 0.77003 14.709 0.894572 11.531C1.01911 8.35305 2.3943 5.353 4.72061 3.18428Z" fill="url(#paint1_radial_34_1186)"/>
<path d="M4.72831 3.18023C7.0798 1.03733 10.1799 -0.0945107 13.3589 0.0291895C16.5379 0.15289 19.5407 1.5222 21.7185 3.84134C21.7185 3.84134 15.0883 10.1124 14.6603 10.4525C14.6603 10.4525 13.1852 11.8894 13.212 11.9581C13.2999 12.1645 21.2829 20.5832 21.2829 20.5832L21.1109 20.7437L21.0383 20.8087C16.1125 25.146 8.52303 24.9244 4.06337 20.1055C1.91739 17.768 0.782929 14.6766 0.907498 11.5058C1.03207 8.33504 2.40555 5.3422 4.72831 3.18023Z" fill="url(#paint2_radial_34_1186)"/>
<path d="M4.73226 3.17659C7.08404 1.03535 10.1836 -0.0951074 13.3617 0.0292998C16.5398 0.153707 19.5415 1.52299 21.7187 3.84152C21.7187 3.84152 15.2795 9.95588 14.7101 10.4183C14.7101 10.4183 13.2809 11.836 13.3191 11.9278C13.4337 12.2029 21.2678 20.549 21.2678 20.549L21.0996 20.7057C21.0996 20.7057 21.027 20.7706 21.027 20.7745C16.1126 25.0965 8.52315 24.8596 4.07496 20.0598C1.93243 17.7294 0.798986 14.6459 0.922137 11.4827C1.04529 8.31942 2.41502 5.33339 4.73226 3.17659Z" fill="url(#paint3_radial_34_1186)"/>
<path d="M4.73975 3.16883C7.09213 1.03088 10.1906 -0.0967865 13.3668 0.0290343C16.5431 0.154855 19.5426 1.52408 21.7185 3.84141C21.7185 3.84141 15.4743 9.81818 14.7596 10.3838C14.7596 10.3838 13.3763 11.7786 13.4221 11.8932C13.5673 12.2372 21.2561 20.5106 21.2523 20.5145L21.0842 20.6711L21.0116 20.7399C16.1086 25.0429 8.52301 24.8022 4.08628 20.0139C1.94745 17.6894 0.815595 14.6129 0.93804 11.4565C1.06049 8.30017 2.42727 5.32058 4.73975 3.16883Z" fill="url(#paint4_radial_34_1186)"/>
<path d="M4.74363 3.1652C7.09629 1.0289 10.1942 -0.0973809 13.3695 0.0291468C16.5449 0.155674 19.5434 1.52488 21.7186 3.8416C21.7186 3.8416 15.6654 9.67316 14.8094 10.3381C14.8094 10.3381 13.4719 11.71 13.5292 11.8476C13.7011 12.2603 21.2409 20.4612 21.2409 20.4612L21.0728 20.6561L21.0001 20.721C16.1048 24.9934 8.52306 24.745 4.09398 19.9682C1.95907 17.6504 0.828907 14.5815 0.95065 11.4326C1.07239 8.28376 2.43614 5.31125 4.74363 3.1652Z" fill="url(#paint5_radial_34_1186)"/>
<path d="M4.75121 3.16132C7.10417 1.02667 10.2015 -0.0982184 13.376 0.0290158C16.5504 0.15625 19.5478 1.52542 21.7223 3.84154C21.7223 3.84154 15.8602 9.52788 14.8628 10.338C14.8628 10.338 13.5673 11.687 13.6323 11.8475C13.8501 12.3099 21.2294 20.442 21.2256 20.442L21.0574 20.5987L20.9848 20.6675C16.1048 24.9437 8.523 24.6838 4.10538 19.9223C1.97346 17.6115 0.84434 14.55 0.965393 11.4084C1.08645 8.26672 2.4478 5.30114 4.75121 3.16132Z" fill="url(#paint6_radial_34_1186)"/>
<path d="M4.75496 3.15374C7.1087 1.02122 10.2058 -0.101613 13.3793 0.0270425C16.5528 0.155698 19.5489 1.52555 21.7223 3.8416C21.7223 3.8416 16.0512 9.3789 14.9124 10.2846C14.9124 10.2846 13.6628 11.6145 13.7392 11.8132C13.9685 12.3635 21.214 20.4229 21.2102 20.4229C21.2064 20.4229 21.0535 20.572 21.042 20.5796L20.9694 20.6446C16.1009 24.8941 8.5191 24.6266 4.11295 19.8918C1.97906 17.5867 0.847947 14.5286 0.968339 11.3898C1.08873 8.25102 2.45077 5.28852 4.75496 3.15374Z" fill="url(#paint7_radial_34_1186)"/>
<path d="M4.76275 3.1497C7.11658 1.02 10.2123 -0.100727 13.384 0.0286272C16.5556 0.157981 19.5498 1.52707 21.7224 3.84139C21.7224 3.84139 16.2462 9.23348 14.9622 10.25C14.9622 10.25 13.7585 11.5569 13.8464 11.7786C14.1024 12.3977 21.1989 20.3845 21.1989 20.3883L21.0307 20.545L20.9581 20.61C16.101 24.8595 8.51925 24.5805 4.14367 19.8457C2.01224 17.5493 0.880097 14.5005 0.996191 11.3695C1.11228 8.23857 2.46711 5.28192 4.76275 3.1497Z" fill="url(#paint8_radial_34_1186)"/>
<path d="M4.76644 3.14608C7.12056 1.01802 10.2157 -0.101317 13.3865 0.0287432C16.5572 0.158803 19.5504 1.52787 21.7223 3.84159C21.7223 3.84159 16.4372 9.08464 14.9965 10.2158C14.9965 10.2158 13.8501 11.5036 13.9341 11.7444C14.2322 12.4208 21.1873 20.335 21.1835 20.3389L21.0153 20.4917C21.0153 20.4917 20.9503 20.5529 20.9427 20.5605C16.0971 24.7947 8.51912 24.5043 4.12825 19.7962C3.07683 18.6611 2.2593 17.33 1.72235 15.8789C1.18539 14.4277 0.939526 12.8851 0.998788 11.339C1.05805 9.79284 1.42128 8.27353 2.06774 6.86779C2.71419 5.46205 3.63121 4.19741 4.76644 3.14608Z" fill="url(#paint9_radial_34_1186)"/>
<path d="M4.77426 3.13811C7.12896 1.01333 10.2231 -0.103228 13.392 0.0282449C16.5609 0.159717 19.5519 1.52874 21.7225 3.84126C21.7225 3.84126 16.6323 8.9391 15.0616 10.1811C15.0616 10.1811 13.9496 11.4498 14.0566 11.7097C14.37 12.474 21.1722 20.3118 21.1722 20.3156L21.004 20.4685L20.9314 20.5334C16.0934 24.7447 8.51929 24.4466 4.14372 19.7424C2.02585 17.4567 0.902527 14.4235 1.02077 11.3097C1.13902 8.1959 2.48915 5.25657 4.77426 3.13811Z" fill="url(#paint10_radial_34_1186)"/>
<path d="M4.77801 3.13459C7.13364 1.01122 10.2278 -0.104058 13.3964 0.0281175C16.5651 0.160293 19.5556 1.52939 21.7262 3.84156C21.7262 3.84156 16.8233 8.80947 15.1113 10.1508C15.1113 10.1508 14.0489 11.3928 14.1597 11.6794C14.5036 12.4934 21.1606 20.2739 21.1568 20.2739L20.9887 20.4306L20.9161 20.4955C16.0934 24.6991 8.51923 24.3934 4.15511 19.7045C3.107 18.5761 2.29163 17.2522 1.75563 15.8084C1.21963 14.3646 0.973519 12.8294 1.03137 11.2904C1.08923 9.75143 1.44991 8.23897 2.09279 6.83952C2.73568 5.44007 3.64814 4.18109 4.77801 3.13459Z" fill="url(#paint11_radial_34_1186)"/>
<path d="M4.78566 3.13057C7.14138 1.01001 10.2342 -0.103166 13.401 0.029706C16.5677 0.162578 19.5564 1.53092 21.7262 3.84136C21.7262 3.84136 17.0182 8.64495 15.1609 10.1162C15.1609 10.1162 14.1444 11.3391 14.2667 11.6448C14.6489 12.539 21.1454 20.2393 21.1454 20.2431L20.9772 20.3998C20.9772 20.3998 20.9123 20.4571 20.9084 20.4648C16.0934 24.6684 8.52305 24.3359 4.16658 19.6622C-0.189897 14.9886 0.0279268 7.44501 4.78566 3.13057Z" fill="url(#paint12_radial_34_1186)"/>
<path d="M4.78941 3.12301C7.1459 1.00457 10.2384 -0.106549 13.4043 0.0277438C16.5702 0.162036 19.5575 1.53106 21.7261 3.84144C21.7261 3.84144 17.2092 8.49217 15.2296 10.0743C15.2296 10.0743 14.2552 11.2742 14.3889 11.6028C14.7902 12.5659 21.1453 20.1935 21.1453 20.1973L20.9771 20.3502L20.9045 20.4151C16.0857 24.592 8.50005 24.2672 4.17415 19.605C-0.151747 14.9428 0.0431477 7.42598 4.78941 3.12301Z" fill="url(#paint13_radial_34_1186)"/>
<path d="M4.79706 3.11925C7.15363 1.00361 10.2448 -0.105411 13.4088 0.0295788C16.5729 0.164568 19.5583 1.53284 21.7262 3.8415C21.7262 3.8415 17.4041 8.35083 15.2641 10.0476C15.2641 10.0476 14.3354 11.2284 14.4768 11.5761C14.9087 12.6041 21.1109 20.1592 21.1109 20.163L20.9428 20.3158L20.8701 20.3808C16.0857 24.5424 8.50006 24.2061 4.1818 19.5592C-0.136459 14.9123 0.058436 7.40693 4.79706 3.11925Z" fill="url(#paint14_radial_34_1186)"/>
<path d="M4.80081 3.11539C7.15767 1.0014 10.2483 -0.106238 13.4114 0.0294565C16.5745 0.165151 19.5589 1.5334 21.7261 3.84147C21.7261 3.84147 17.5951 8.20558 15.3137 10.0131C15.3137 10.0131 14.4309 11.1596 14.5838 11.5417C15.0423 12.6308 21.1108 20.1247 21.1108 20.1286L20.9465 20.2814L20.8739 20.3464C16.0818 24.4774 8.49999 24.1487 4.1932 19.5095C-0.113596 14.8702 0.0698346 7.39161 4.80081 3.11539Z" fill="url(#paint15_radial_34_1186)"/>
<path d="M4.80857 3.10775C7.16706 0.99772 10.257 -0.106653 13.4186 0.0304367C16.5803 0.167526 19.563 1.53521 21.73 3.84147C21.73 3.84147 17.7901 8.04508 15.3787 9.97875C15.3787 9.97875 14.5418 11.1252 14.7023 11.5073C15.1762 12.6767 21.1109 20.0865 21.088 20.0904L20.9199 20.2432C20.8975 20.2668 20.8732 20.2886 20.8473 20.3082C16.0819 24.443 8.5001 24.0953 4.20478 19.4675C-0.0905498 14.8397 0.0928802 7.3725 4.80857 3.10775Z" fill="url(#paint16_radial_34_1186)"/>
<path d="M4.81249 3.10401C7.1738 0.997157 10.2656 -0.102387 13.427 0.0404353C16.5883 0.183257 19.5684 1.55711 21.7301 3.86831C21.7301 3.86831 17.9813 7.91142 15.4132 9.9559C15.4132 9.9559 14.6222 11.0718 14.7942 11.4845C15.3101 12.7265 21.0766 20.0675 21.0728 20.0713C21.069 20.0751 20.9314 20.2051 20.9047 20.2242L20.8359 20.2892C16.0782 24.3934 8.5002 24.0265 4.21252 19.4217C-0.0751675 14.8168 0.0929772 7.35348 4.81249 3.10401Z" fill="url(#paint17_radial_34_1186)"/>
<path d="M4.81997 3.1001C7.18044 0.99464 10.2708 -0.104083 13.4306 0.0387335C16.5904 0.18155 19.5691 1.55458 21.73 3.86439C21.73 3.86439 18.176 7.77375 15.4628 9.92524C15.4628 9.92524 14.7176 11.0182 14.8972 11.4538C15.4437 12.7646 21.065 20.033 21.0574 20.0368L20.8931 20.1897L20.8205 20.2547C16.0742 24.3436 8.50004 23.9691 4.22382 19.3757C-0.0524006 14.7823 0.111922 7.33429 4.81997 3.1001Z" fill="url(#paint18_radial_34_1186)"/>
<path d="M4.82375 3.07696C7.18445 0.973575 10.2738 -0.123826 13.4324 0.0189676C16.5909 0.161761 19.5686 1.53344 21.7299 3.84125C21.7299 3.84125 18.367 7.6054 15.5162 9.86771C15.5162 9.86771 14.8131 10.9377 15.0041 11.3963C15.5774 12.7758 21.0497 19.9755 21.0459 19.9793L20.8777 20.1322L20.8051 20.1933C16.0741 24.2938 8.5 23.9078 4.23143 19.3335C-0.0371504 14.7592 0.127173 7.31497 4.82375 3.07696Z" fill="url(#paint19_radial_34_1186)"/>
<path d="M4.83142 3.0772C7.19128 0.97521 10.2791 -0.121372 13.4362 0.0214163C16.5932 0.164204 19.5695 1.53506 21.7299 3.84149C19.8301 5.9957 17.7695 8.00263 15.5659 9.84502C15.5659 9.84502 14.9086 10.8959 15.1112 11.3736C15.7111 12.8219 21.0344 19.9452 21.0306 19.9528L20.8663 20.1018L20.7937 20.1668C16.0703 24.2443 8.50002 23.8507 4.24291 19.2879C-0.0142038 14.725 0.138655 7.28081 4.83142 3.0772Z" fill="url(#paint20_radial_34_1186)"/>
<path d="M4.83523 3.07715C7.19552 0.976084 10.2832 -0.11989 13.4399 0.022885C16.5967 0.16566 19.5728 1.53589 21.7338 3.84144C19.8605 5.98977 17.8156 7.98222 15.6194 9.79911C15.6194 9.79911 15.0118 10.8271 15.2373 11.3277C15.8678 12.8563 21.0459 19.8992 21.0383 19.9031L20.8739 20.0559L20.8013 20.1209C16.0703 24.1908 8.50002 23.7895 4.25055 19.242C0.0010767 14.6944 0.153935 7.28076 4.83523 3.07715Z" fill="url(#paint21_radial_34_1186)"/>
<path d="M4.8429 3.07707C7.2032 0.979229 10.289 -0.114716 13.4436 0.028027C16.5982 0.17077 19.5726 1.53893 21.7338 3.84136C19.89 5.99123 17.8592 7.97341 15.6653 9.76464C15.6653 9.76464 15.1035 10.7735 15.3214 11.2932C15.9787 12.8944 21.0077 19.8915 21.0039 19.8915C21.0001 19.8915 20.8701 20.0176 20.8357 20.0444L20.767 20.1055C16.0666 24.141 8.50004 23.713 4.26204 19.196C0.0240279 14.6791 0.165423 7.28069 4.8429 3.07707Z" fill="url(#paint22_radial_34_1186)"/>
<path d="M4.84671 3.07717C7.20681 0.980485 10.2918 -0.112747 13.4455 0.0299857C16.5991 0.172719 19.5727 1.54016 21.7338 3.84146C19.9198 5.99523 17.9044 7.97097 15.715 9.74181C15.715 9.74181 15.1991 10.7277 15.4245 11.2704C16.1162 12.9251 20.9962 19.8381 20.9886 19.8419L20.8243 19.991L20.7517 20.056C16.0627 24.0952 8.50003 23.6711 4.27349 19.1503C0.0469489 14.6295 0.180701 7.24257 4.84671 3.07717Z" fill="url(#paint23_radial_34_1186)"/>
<path d="M4.8506 3.07727C7.21049 0.981742 10.2946 -0.110779 13.4474 0.0319444C16.6002 0.174668 19.573 1.54138 21.7339 3.84156C19.9508 5.99911 17.9492 7.9662 15.7609 9.71134C15.7609 9.71134 15.2909 10.6743 15.5278 11.2399C16.2462 12.9634 20.9772 19.8 20.9734 19.8077L20.8052 19.9567L20.7326 20.0217C16.0628 24.0418 8.50011 23.61 4.29649 19.1045C0.0928754 14.599 0.196055 7.22356 4.8506 3.07727Z" fill="url(#paint24_radial_34_1186)"/>
<path d="M4.85818 3.07723C7.21765 0.984012 10.3001 -0.107087 13.451 0.0356177C16.602 0.178323 19.5732 1.54359 21.7338 3.84153C19.9842 5.99981 18.0001 7.95695 15.8182 9.6769C15.8182 9.6769 15.3902 10.6208 15.6385 11.2055C16.4028 12.9978 20.9886 19.7656 20.9619 19.7732L20.7975 19.9223L20.7249 19.9834C16.0589 23.9921 8.50004 23.5488 4.29642 19.0586C0.0928056 14.5684 0.20745 7.20442 4.85818 3.07723Z" fill="url(#paint25_radial_34_1186)"/>
<path d="M4.86199 3.07731C7.22168 0.986152 10.3031 -0.103637 13.4528 0.0390452C16.6026 0.181728 19.5728 1.54566 21.7338 3.8416C20.0194 6.00457 18.0498 7.95236 15.8678 9.64259C15.8678 9.64259 15.4857 10.5636 15.7417 11.1712C16.506 13.0322 20.9542 19.7275 20.9466 19.7313C20.9389 19.7351 20.8205 19.8497 20.7822 19.8803L20.7096 19.9453C16.0589 23.9425 8.50003 23.4916 4.29642 19.0128C0.0928004 14.5341 0.22273 7.18539 4.86199 3.07731Z" fill="url(#paint26_radial_34_1186)"/>
<path d="M4.86958 3.0543C7.23196 0.967195 10.3143 -0.117891 13.4631 0.0290648C16.612 0.176021 19.5798 1.54347 21.7375 3.84153C21.7375 3.84153 19.9109 6.44012 15.9174 9.60812C15.9174 9.60812 15.5811 10.51 15.8486 11.1367C16.6512 13.0474 20.9388 19.693 20.935 19.6968L20.7669 19.8458L20.6981 19.9108C16.055 23.8928 8.49997 23.4304 4.29636 18.9669C0.0927484 14.5034 0.234143 7.1662 4.86958 3.0543Z" fill="url(#paint27_radial_34_1186)"/>
<path d="M4.8735 3.04653C7.23705 0.962443 10.3189 -0.120005 13.4666 0.0283556C16.6142 0.176716 19.5806 1.54424 21.7376 3.84139C21.7376 3.84139 20.1059 6.27949 15.9672 9.5736C15.813 10.0715 15.813 10.6043 15.9672 11.1022C16.8003 13.1008 20.9351 19.6508 20.9351 19.6585L20.7708 19.8075L20.6982 19.8686C16.0513 23.843 8.50007 23.3729 4.32321 18.9247C0.146343 14.4765 0.249523 7.15078 4.8735 3.04653Z" fill="url(#paint28_radial_34_1186)"/>
<path d="M4.88114 3.04288C7.24391 0.959753 10.3248 -0.121814 13.4712 0.0272681C16.6176 0.17635 19.5824 1.54437 21.7376 3.84156C21.7376 3.84156 20.2969 6.13445 16.0054 9.52409C15.8704 10.0269 15.885 10.5581 16.0475 11.0527C16.9073 13.1468 20.9122 19.628 20.9046 19.6357L20.7402 19.7847L20.6714 19.8459C16.0513 23.7934 8.50007 23.331 4.33085 18.879C0.161628 14.427 0.264808 7.13185 4.88114 3.04288Z" fill="url(#paint29_radial_34_1186)"/>
<path d="M4.88508 3.03881C7.24812 0.957323 10.3284 -0.122869 13.4739 0.0269162C16.6194 0.176702 19.5832 1.54471 21.7377 3.84132C21.7377 3.84132 20.4919 6.00045 16.0667 9.50856C15.9602 10.0174 15.9933 10.5455 16.1622 11.0371C17.0526 13.1733 20.9008 19.5819 20.8932 19.5896L20.7289 19.7348L20.6563 19.7998C16.0476 23.7435 8.50018 23.2505 4.34243 18.8329C0.11971 14.3542 0.27639 7.1125 4.88508 3.03881Z" fill="url(#paint30_radial_34_1186)"/>
<path d="M4.89256 3.0314C7.25657 0.954088 10.3356 -0.122763 13.479 0.0284163C16.6224 0.179596 19.5839 1.54696 21.7376 3.84156C21.7376 3.84156 20.6829 5.84018 16.1162 9.45911C16.0374 9.97338 16.09 10.4992 16.2691 10.9877C17.1862 13.1927 20.8854 19.5325 20.8778 19.5363L20.7134 19.6854L20.6408 19.7465C16.0551 23.6635 8.50767 23.1858 4.34992 18.7606C0.192159 14.3353 0.291517 7.09362 4.89256 3.0314Z" fill="url(#paint31_radial_34_1186)"/>
<path d="M4.89654 3.02746C7.26144 0.951531 10.3406 -0.124058 13.4837 0.0278205C16.6268 0.1797 19.5878 1.54716 21.7416 3.84143C21.7416 3.84143 20.8779 5.69102 16.1699 9.42459C16.1183 9.94325 16.189 10.4668 16.3762 10.9532C17.3201 13.2575 20.8703 19.5094 20.8626 19.5286L20.6983 19.6776L20.6295 19.7387C16.0438 23.6405 8.50018 23.1322 4.36153 18.7452C0.157921 14.2893 0.306958 7.07439 4.89654 3.02746Z" fill="url(#paint32_radial_34_1186)"/>
<path d="M4.90413 3.02379C7.26867 0.94973 10.3466 -0.12438 13.4882 0.028206C16.6298 0.180793 19.5891 1.54814 21.7415 3.84158C21.7415 3.84158 21.0689 5.56124 16.2195 9.40564C16.1979 9.92776 16.2864 10.4486 16.4794 10.9342C17.4538 13.2921 20.8588 19.4867 20.8511 19.5096L20.6868 19.6548L20.6142 19.716C16.0399 23.5909 8.50014 23.075 4.36913 18.6956C0.176978 14.2551 0.318372 7.05543 4.90413 3.02379Z" fill="url(#paint33_radial_34_1186)"/>
<path d="M4.90804 3.01603C7.27374 0.944999 10.3512 -0.126481 13.4916 0.0275084C16.632 0.181498 19.5899 1.54892 21.7416 3.84147C21.7416 3.84147 21.2639 5.41209 16.2693 9.37113C16.2775 9.9023 16.3851 10.4272 16.5864 10.9188C17.5915 13.3302 20.8436 19.4522 20.8359 19.4598L20.6716 19.605L20.6028 19.6662C16.04 23.5411 8.50022 23.0138 4.38067 18.6496C0.196169 14.2244 0.333741 7.03621 4.90804 3.01603Z" fill="url(#paint34_radial_34_1186)"/>
<path d="M4.91556 3.01217C7.28258 0.949277 10.3573 -0.115365 13.4932 0.0421398C16.629 0.199645 19.5816 1.56702 21.73 3.85671C21.73 3.85671 21.4434 5.26684 16.3074 9.3367C16.3517 9.86962 16.4807 10.3921 16.6895 10.8844C17.7251 13.3683 20.832 19.4177 20.8243 19.4254L20.66 19.5706C20.6341 19.5889 20.6098 19.6093 20.5874 19.6317C16.036 23.4914 8.50009 22.9488 4.39202 18.6038C0.215153 14.19 0.345083 7.02089 4.91556 3.01217Z" fill="url(#paint35_radial_34_1186)"/>
<path d="M4.91927 3.00852C7.28636 0.945195 10.3616 -0.119377 13.4977 0.0388554C16.6339 0.197088 19.5863 1.56578 21.7337 3.85688C21.7337 3.85688 21.642 5.12179 16.3607 9.30248C16.4358 9.83597 16.5796 10.3575 16.7888 10.854C17.8588 13.3953 20.8166 19.3797 20.8089 19.3873L20.6446 19.5325C20.6217 19.5325 20.5949 19.5784 20.572 19.5937C16.0321 23.4419 8.49999 22.8954 4.39955 18.5581C0.234147 14.1596 0.360255 7.00195 4.91927 3.00852Z" fill="url(#paint36_radial_34_1186)"/>
<path d="M4.92689 3.00066C7.29576 0.940109 10.3712 -0.121951 13.5067 0.0376788C16.6423 0.197309 19.594 1.5662 21.7413 3.85667C21.7413 3.85667 21.8407 4.98782 16.418 9.27169C16.5291 9.8026 16.693 10.3211 16.9072 10.8194C17.9963 13.4409 20.8089 19.3451 20.7974 19.3527C20.786 19.3604 20.6866 19.4559 20.6331 19.4979L20.5643 19.5591C16.0359 23.3997 8.49996 22.8341 4.411 18.512C0.24942 14.1249 0.375528 6.98263 4.92689 3.00066Z" fill="url(#paint37_radial_34_1186)"/>
<path d="M4.93082 2.997C7.30024 0.936502 10.3764 -0.124825 13.5123 0.036246C16.6482 0.197317 19.5994 1.56823 21.7453 3.86065C21.7453 3.86065 22.0357 4.82748 16.4716 9.23746C16.6145 9.76619 16.7933 10.2846 17.0066 10.789C18.1263 13.464 20.7899 19.3109 20.7823 19.3185L20.6179 19.4637L20.5453 19.5249C16.0322 23.331 8.50007 22.7731 4.41875 18.4701C0.268636 14.0907 0.387101 6.96369 4.93082 2.997Z" fill="url(#paint38_radial_34_1186)"/>
<path d="M4.93862 2.99308C7.30852 0.933069 10.385 -0.127594 13.5209 0.0341901C16.6568 0.195974 19.6078 1.5676 21.7531 3.86056C21.7531 3.86056 22.2269 4.67835 16.5253 9.1915C16.5253 9.1915 16.7355 9.83351 17.1176 10.743C18.2641 13.5021 20.7786 19.2649 20.771 19.2725L20.6066 19.4177L20.5379 19.4751C16.0285 23.2927 8.50023 22.7157 4.43037 18.4242C0.287893 14.0562 0.402537 6.94448 4.93862 2.99308Z" fill="url(#paint39_radial_34_1186)"/>
<path d="M20.7518 19.2496C16.2883 23.2621 8.57278 22.7309 4.43795 18.363C0.303126 13.995 0.413948 6.89858 4.94239 2.97011C7.31365 0.911963 10.3905 -0.146783 13.5261 0.0164136C16.6618 0.17961 19.612 1.55204 21.7568 3.84523C21.7568 3.84523 22.4332 4.51781 16.5826 9.15325C16.5711 9.16853 20.7671 19.2381 20.7518 19.2496Z" fill="url(#paint40_radial_34_1186)"/>
<path d="M16.4028 9.29761C14.5723 10.7994 12.3215 12.5688 9.7038 14.5521C11.6484 16.6551 13.91 18.4409 16.4066 19.8449C18.5505 20.9913 20.2281 21.2053 21.0497 20.4792C21.8713 19.7531 21.772 18.0793 20.8166 15.8935C19.6855 13.4854 18.1975 11.2617 16.4028 9.29761Z" fill="url(#paint41_linear_34_1186)"/>
<path d="M16.5672 9.14868L15.65 9.91298C17.3293 11.759 18.7253 13.844 19.7925 16.0999C20.7287 18.2552 20.7058 19.3367 20.4039 19.608C20.102 19.8794 18.7989 19.9482 16.7162 18.8437C14.4091 17.5354 12.3225 15.8718 10.5331 13.9141L9.50891 14.6783L9.74966 14.9115C14.087 19.394 18.7798 21.9468 20.8434 21.0182C20.9045 20.9876 20.9657 20.957 21.023 20.9226H21.0459C21.1257 20.8731 21.2012 20.8169 21.2714 20.7545C21.3458 20.6872 21.4136 20.613 21.4739 20.5328C22.8229 18.7635 20.7746 13.9981 16.6933 9.32829L16.5672 9.14868Z" fill="#84EEB1"/>
</g>
<path d="M34.6046 21.2558C32.3859 21.2558 30.6353 20.4498 29.3526 18.8378C28.0699 17.2085 27.4286 14.9205 27.4286 11.9738C27.4286 9.09646 28.0613 6.82579 29.3266 5.16178C30.6093 3.49777 32.4466 2.66577 34.8386 2.66577C35.6706 2.66577 36.416 2.78711 37.0746 3.02977C37.7333 3.25511 38.2706 3.51511 38.6866 3.80978V6.33179C38.2186 6.03712 37.664 5.75978 37.0226 5.49978C36.3813 5.23978 35.7053 5.10978 34.9946 5.10978C33.4693 5.10978 32.3599 5.67312 31.6666 6.79979C30.9733 7.92646 30.6266 9.65113 30.6266 11.9738C30.6266 14.2271 30.9733 15.9345 31.6666 17.0958C32.3599 18.2398 33.4173 18.8118 34.8386 18.8118C35.6706 18.8118 36.39 18.6905 36.9966 18.4478C37.6033 18.1878 38.1666 17.8672 38.6866 17.4858V20.0078C38.288 20.2852 37.7506 20.5625 37.0746 20.8398C36.3986 21.1172 35.5753 21.2558 34.6046 21.2558Z" fill="black"/>
<path d="M40.644 7.91779H50.836V20.9958H47.742V10.3618H43.738V20.9958H40.644V7.91779Z" fill="black"/>
<path d="M52.4009 18.3178C52.4009 18.3178 52.4616 18.3612 52.5829 18.4478C52.7042 18.5172 52.8776 18.5518 53.1029 18.5518C53.6056 18.5518 53.9349 18.2918 54.0909 17.7718C54.2469 17.2518 54.3509 16.2985 54.4029 14.9118L54.6629 7.91779H63.5289V20.9958H60.4349V10.3618H57.2889L57.1069 15.0418C57.0376 17.2085 56.7689 18.7858 56.3009 19.7738C55.8329 20.7618 54.9402 21.2558 53.6229 21.2558C53.2589 21.2558 52.9642 21.2125 52.7389 21.1258C52.5136 21.0392 52.4009 20.9958 52.4009 20.9958V18.3178Z" fill="black"/>
<path d="M66.1363 7.91779H69.1523V16.0038L73.9363 7.91779H76.6143V20.9958H73.5983V12.9098L68.8143 20.9958H66.1363V7.91779Z" fill="black"/>
<path d="M88.8065 10.3618H85.1665V20.9958H82.0725V10.3618H78.4325V7.91779H88.8065V10.3618Z" fill="black"/>
<defs>
<radialGradient id="paint0_radial_34_1186" cx="0" cy="0" r="1" gradientUnits="userSpaceOnUse" gradientTransform="translate(15.9399 1.3597) rotate(-2.29061) scale(55.0157 40.7126)">
<stop stop-color="#03BA50"/>
<stop offset="0.8" stop-color="#01B64E"/>
</radialGradient>
<radialGradient id="paint1_radial_34_1186" cx="0" cy="0" r="1" gradientUnits="userSpaceOnUse" gradientTransform="translate(15.9343 1.35532) rotate(-2.29061) scale(54.901 40.6277)">
<stop stop-color="#04BC50"/>
<stop offset="0.8" stop-color="#01B34D"/>
</radialGradient>
<radialGradient id="paint2_radial_34_1186" cx="0" cy="0" r="1" gradientUnits="userSpaceOnUse" gradientTransform="translate(15.9213 1.36541) rotate(-2.29061) scale(54.7863 40.5427)">
<stop stop-color="#06BD51"/>
<stop offset="0.72" stop-color="#02B24C"/>
<stop offset="0.8" stop-color="#01B04B"/>
</radialGradient>
<radialGradient id="paint3_radial_34_1186" cx="0" cy="0" r="1" gradientUnits="userSpaceOnUse" gradientTransform="translate(15.9008 1.38287) rotate(-2.29061) scale(54.6716 40.4579)">
<stop stop-color="#08BF52"/>
<stop offset="0.56" stop-color="#04B44D"/>
<stop offset="0.8" stop-color="#01AD4A"/>
</radialGradient>
<radialGradient id="paint4_radial_34_1186" cx="0" cy="0" r="1" gradientUnits="userSpaceOnUse" gradientTransform="translate(15.8801 1.39933) rotate(-2.29061) scale(54.5568 40.3729)">
<stop stop-color="#0AC053"/>
<stop offset="0.48" stop-color="#05B54E"/>
<stop offset="0.8" stop-color="#01AA49"/>
</radialGradient>
<radialGradient id="paint5_radial_34_1186" cx="0" cy="0" r="1" gradientUnits="userSpaceOnUse" gradientTransform="translate(15.856 1.44083) rotate(-1.71836) scale(54.4192 40.283)">
<stop stop-color="#0BC253"/>
<stop offset="0.42" stop-color="#07B74E"/>
<stop offset="0.8" stop-color="#01A848"/>
</radialGradient>
<radialGradient id="paint6_radial_34_1186" cx="0" cy="0" r="1" gradientUnits="userSpaceOnUse" gradientTransform="translate(15.8243 1.45121) rotate(-1.71836) scale(54.3045 40.198)">
<stop stop-color="#0DC354"/>
<stop offset="0.37" stop-color="#08B84F"/>
<stop offset="0.8" stop-color="#01A546"/>
</radialGradient>
<radialGradient id="paint7_radial_34_1186" cx="0" cy="0" r="1" gradientUnits="userSpaceOnUse" gradientTransform="translate(16.2278 1.46194) rotate(-1.71836) scale(54.1898 40.0969)">
<stop stop-color="#0FC555"/>
<stop offset="0.33" stop-color="#0ABA50"/>
<stop offset="0.8" stop-color="#01A245"/>
</radialGradient>
<radialGradient id="paint8_radial_34_1186" cx="0" cy="0" r="1" gradientUnits="userSpaceOnUse" gradientTransform="translate(16.1877 1.4811) rotate(-1.70136) scale(54.6154 40.0121)">
<stop stop-color="#11C656"/>
<stop offset="0.3" stop-color="#0CBB51"/>
<stop offset="0.8" stop-color="#019F44"/>
</radialGradient>
<radialGradient id="paint9_radial_34_1186" cx="0" cy="0" r="1" gradientUnits="userSpaceOnUse" gradientTransform="translate(16.1742 1.5009) rotate(-1.70135) scale(54.4996 39.9272)">
<stop stop-color="#12C856"/>
<stop offset="0.28" stop-color="#0EBD51"/>
<stop offset="0.77" stop-color="#029E44"/>
<stop offset="0.8" stop-color="#019C43"/>
</radialGradient>
<radialGradient id="paint10_radial_34_1186" cx="0" cy="0" r="1" gradientUnits="userSpaceOnUse" gradientTransform="translate(16.1609 1.52705) rotate(-1.70135) scale(54.3799 39.8395)">
<stop stop-color="#14C957"/>
<stop offset="0.26" stop-color="#0FBE52"/>
<stop offset="0.72" stop-color="#049F44"/>
<stop offset="0.8" stop-color="#019941"/>
</radialGradient>
<radialGradient id="paint11_radial_34_1186" cx="0" cy="0" r="1" gradientUnits="userSpaceOnUse" gradientTransform="translate(16.136 1.55984) rotate(-1.70136) scale(54.264 39.7547)">
<stop stop-color="#16CB58"/>
<stop offset="0.24" stop-color="#11C053"/>
<stop offset="0.66" stop-color="#06A145"/>
<stop offset="0.8" stop-color="#019640"/>
</radialGradient>
<radialGradient id="paint12_radial_34_1186" cx="0" cy="0" r="1" gradientUnits="userSpaceOnUse" gradientTransform="translate(16.1074 1.59507) rotate(-1.70135) scale(54.1482 39.6698)">
<stop stop-color="#18CC59"/>
<stop offset="0.23" stop-color="#13C154"/>
<stop offset="0.62" stop-color="#07A246"/>
<stop offset="0.8" stop-color="#01933F"/>
</radialGradient>
<radialGradient id="paint13_radial_34_1186" cx="0" cy="0" r="1" gradientUnits="userSpaceOnUse" gradientTransform="translate(16.0787 1.63745) rotate(-1.70136) scale(54.0284 39.5821)">
<stop stop-color="#19CD59"/>
<stop offset="0.21" stop-color="#15C254"/>
<stop offset="0.59" stop-color="#09A347"/>
<stop offset="0.8" stop-color="#01903E"/>
</radialGradient>
<radialGradient id="paint14_radial_34_1186" cx="0" cy="0" r="1" gradientUnits="userSpaceOnUse" gradientTransform="translate(16.0424 1.68287) rotate(-1.70135) scale(53.9126 39.4972)">
<stop stop-color="#1BCF5A"/>
<stop offset="0.2" stop-color="#17C455"/>
<stop offset="0.56" stop-color="#0BA547"/>
<stop offset="0.8" stop-color="#018D3C"/>
</radialGradient>
<radialGradient id="paint15_radial_34_1186" cx="0" cy="0" r="1" gradientUnits="userSpaceOnUse" gradientTransform="translate(16.0024 1.5168) rotate(-1.13442) scale(53.7836 39.4114)">
<stop stop-color="#1DD05B"/>
<stop offset="0.19" stop-color="#18C556"/>
<stop offset="0.54" stop-color="#0CA648"/>
<stop offset="0.8" stop-color="#018B3B"/>
</radialGradient>
<radialGradient id="paint16_radial_34_1186" cx="0" cy="0" r="1" gradientUnits="userSpaceOnUse" gradientTransform="translate(15.9586 1.55126) rotate(-1.13442) scale(53.6639 39.3238)">
<stop stop-color="#1ED25B"/>
<stop offset="0.18" stop-color="#1AC756"/>
<stop offset="0.51" stop-color="#0EA848"/>
<stop offset="0.8" stop-color="#01883A"/>
</radialGradient>
<radialGradient id="paint17_radial_34_1186" cx="0" cy="0" r="1" gradientUnits="userSpaceOnUse" gradientTransform="translate(15.915 1.5849) rotate(-1.13442) scale(53.5481 39.2389)">
<stop stop-color="#20D35C"/>
<stop offset="0.18" stop-color="#1BC857"/>
<stop offset="0.49" stop-color="#0FA949"/>
<stop offset="0.8" stop-color="#018539"/>
</radialGradient>
<radialGradient id="paint18_radial_34_1186" cx="0" cy="0" r="1" gradientUnits="userSpaceOnUse" gradientTransform="translate(15.8634 1.63189) rotate(-1.13442) scale(53.4323 39.154)">
<stop stop-color="#22D55D"/>
<stop offset="0.17" stop-color="#1DCA58"/>
<stop offset="0.47" stop-color="#11AB4A"/>
<stop offset="0.8" stop-color="#018237"/>
</radialGradient>
<radialGradient id="paint19_radial_34_1186" cx="0" cy="0" r="1" gradientUnits="userSpaceOnUse" gradientTransform="translate(15.8042 1.67509) rotate(-1.13442) scale(53.3126 39.0664)">
<stop stop-color="#24D65E"/>
<stop offset="0.16" stop-color="#1FCB59"/>
<stop offset="0.45" stop-color="#13AC4B"/>
<stop offset="0.8" stop-color="#017F36"/>
</radialGradient>
<radialGradient id="paint20_radial_34_1186" cx="0" cy="0" r="1" gradientUnits="userSpaceOnUse" gradientTransform="translate(15.7414 1.72837) rotate(-1.13442) scale(53.1968 38.9815)">
<stop stop-color="#25D85E"/>
<stop offset="0.15" stop-color="#20CD59"/>
<stop offset="0.43" stop-color="#14AE4B"/>
<stop offset="0.79" stop-color="#017D36"/>
<stop offset="0.8" stop-color="#007C35"/>
</radialGradient>
<radialGradient id="paint21_radial_34_1186" cx="0" cy="0" r="1" gradientUnits="userSpaceOnUse" gradientTransform="translate(16.898 1.78817) rotate(-1.13442) scale(53.081 38.8862)">
<stop stop-color="#27D95F"/>
<stop offset="0.15" stop-color="#22CE5A"/>
<stop offset="0.42" stop-color="#16AF4C"/>
<stop offset="0.77" stop-color="#027E36"/>
<stop offset="0.8" stop-color="#007934"/>
</radialGradient>
<radialGradient id="paint22_radial_34_1186" cx="0" cy="0" r="1" gradientUnits="userSpaceOnUse" gradientTransform="translate(16.5027 1.84984) rotate(-1.1233) scale(53.4855 38.7986)">
<stop stop-color="#29DB60"/>
<stop offset="0.14" stop-color="#24D05B"/>
<stop offset="0.4" stop-color="#18B14D"/>
<stop offset="0.74" stop-color="#048037"/>
<stop offset="0.8" stop-color="#007632"/>
</radialGradient>
<radialGradient id="paint23_radial_34_1186" cx="0" cy="0" r="1" gradientUnits="userSpaceOnUse" gradientTransform="translate(16.4561 1.91857) rotate(-1.1233) scale(53.3686 38.7138)">
<stop stop-color="#2BDC61"/>
<stop offset="0.14" stop-color="#26D15C"/>
<stop offset="0.39" stop-color="#1AB24E"/>
<stop offset="0.71" stop-color="#068138"/>
<stop offset="0.8" stop-color="#007331"/>
</radialGradient>
<radialGradient id="paint24_radial_34_1186" cx="0" cy="0" r="1" gradientUnits="userSpaceOnUse" gradientTransform="translate(16.4094 1.99404) rotate(-1.1233) scale(53.2477 38.6261)">
<stop stop-color="#2CDE61"/>
<stop offset="0.13" stop-color="#27D35C"/>
<stop offset="0.37" stop-color="#1BB44E"/>
<stop offset="0.69" stop-color="#088339"/>
<stop offset="0.8" stop-color="#007030"/>
</radialGradient>
<radialGradient id="paint25_radial_34_1186" cx="0" cy="0" r="1" gradientUnits="userSpaceOnUse" gradientTransform="translate(16.3587 1.6114) rotate(-0.561705) scale(53.1231 38.5417)">
<stop stop-color="#2EDF62"/>
<stop offset="0.13" stop-color="#29D45D"/>
<stop offset="0.37" stop-color="#1DB54F"/>
<stop offset="0.67" stop-color="#098439"/>
<stop offset="0.8" stop-color="#006E2F"/>
</radialGradient>
<radialGradient id="paint26_radial_34_1186" cx="0" cy="0" r="1" gradientUnits="userSpaceOnUse" gradientTransform="translate(16.3003 1.67127) rotate(-0.561705) scale(53.0062 38.4569)">
<stop stop-color="#30E163"/>
<stop offset="0.13" stop-color="#2BD65E"/>
<stop offset="0.35" stop-color="#1FB750"/>
<stop offset="0.65" stop-color="#0B8639"/>
<stop offset="0.8" stop-color="#006B2D"/>
</radialGradient>
<radialGradient id="paint27_radial_34_1186" cx="0" cy="0" r="1" gradientUnits="userSpaceOnUse" gradientTransform="translate(16.2418 1.7377) rotate(-0.561706) scale(52.8853 38.3692)">
<stop stop-color="#31E263"/>
<stop offset="0.12" stop-color="#2CD75E"/>
<stop offset="0.34" stop-color="#20B850"/>
<stop offset="0.63" stop-color="#0D873A"/>
<stop offset="0.8" stop-color="#00682C"/>
</radialGradient>
<radialGradient id="paint28_radial_34_1186" cx="0" cy="0" r="1" gradientUnits="userSpaceOnUse" gradientTransform="translate(16.1756 1.80696) rotate(-0.561706) scale(52.7684 38.2843)">
<stop stop-color="#33E364"/>
<stop offset="0.12" stop-color="#2ED85F"/>
<stop offset="0.34" stop-color="#22B951"/>
<stop offset="0.62" stop-color="#0E883B"/>
<stop offset="0.8" stop-color="#00652B"/>
</radialGradient>
<radialGradient id="paint29_radial_34_1186" cx="0" cy="0" r="1" gradientUnits="userSpaceOnUse" gradientTransform="translate(16.1055 1.88226) rotate(-0.561705) scale(52.6475 38.1967)">
<stop stop-color="#35E565"/>
<stop offset="0.12" stop-color="#30DA60"/>
<stop offset="0.33" stop-color="#24BB52"/>
<stop offset="0.6" stop-color="#108A3C"/>
<stop offset="0.8" stop-color="#00622A"/>
</radialGradient>
<radialGradient id="paint30_radial_34_1186" cx="0" cy="0" r="1" gradientUnits="userSpaceOnUse" gradientTransform="translate(16.0355 1.96001) rotate(-0.561705) scale(52.5306 38.1118)">
<stop stop-color="#37E666"/>
<stop offset="0.11" stop-color="#32DB61"/>
<stop offset="0.32" stop-color="#26BC53"/>
<stop offset="0.59" stop-color="#128B3C"/>
<stop offset="0.8" stop-color="#005F28"/>
</radialGradient>
<radialGradient id="paint31_radial_34_1186" cx="0" cy="0" r="1" gradientUnits="userSpaceOnUse" gradientTransform="translate(15.9573 2.04501) rotate(-0.561705) scale(52.4098 38.0241)">
<stop stop-color="#38E866"/>
<stop offset="0.11" stop-color="#33DD61"/>
<stop offset="0.31" stop-color="#27BE53"/>
<stop offset="0.57" stop-color="#148D3D"/>
<stop offset="0.8" stop-color="#005C27"/>
</radialGradient>
<radialGradient id="paint32_radial_34_1186" cx="0" cy="0" r="1" gradientUnits="userSpaceOnUse" gradientTransform="translate(15.8756 2.13533) rotate(-0.561706) scale(52.2928 37.9393)">
<stop stop-color="#3AE967"/>
<stop offset="0.11" stop-color="#35DE62"/>
<stop offset="0.3" stop-color="#29BF54"/>
<stop offset="0.56" stop-color="#158E3E"/>
<stop offset="0.8" stop-color="#005926"/>
</radialGradient>
<radialGradient id="paint33_radial_34_1186" cx="0" cy="0" r="1" gradientUnits="userSpaceOnUse" gradientTransform="translate(15.7937 2.22884) rotate(-0.561705) scale(52.1759 37.8545)">
<stop stop-color="#3CEB68"/>
<stop offset="0.11" stop-color="#37E063"/>
<stop offset="0.29" stop-color="#2BC155"/>
<stop offset="0.54" stop-color="#17903F"/>
<stop offset="0.8" stop-color="#005625"/>
</radialGradient>
<radialGradient id="paint34_radial_34_1186" cx="0" cy="0" r="1" gradientUnits="userSpaceOnUse" gradientTransform="translate(15.7002 2.32886) rotate(-0.561705) scale(52.055 37.7668)">
<stop stop-color="#3EEC69"/>
<stop offset="0.1" stop-color="#39E164"/>
<stop offset="0.29" stop-color="#2DC256"/>
<stop offset="0.53" stop-color="#19913F"/>
<stop offset="0.8" stop-color="#005323"/>
</radialGradient>
<radialGradient id="paint35_radial_34_1186" cx="0" cy="0" r="1" gradientUnits="userSpaceOnUse" gradientTransform="translate(15.6065 1.7342) scale(51.9356 37.6787)">
<stop stop-color="#3FEE69"/>
<stop offset="0.1" stop-color="#3AE364"/>
<stop offset="0.28" stop-color="#2EC456"/>
<stop offset="0.52" stop-color="#1A9340"/>
<stop offset="0.8" stop-color="#005122"/>
</radialGradient>
<radialGradient id="paint36_radial_34_1186" cx="0" cy="0" r="1" gradientUnits="userSpaceOnUse" gradientTransform="translate(16.8325 1.81798) scale(52.3228 37.5911)">
<stop stop-color="#41EF6A"/>
<stop offset="0.1" stop-color="#3CE465"/>
<stop offset="0.28" stop-color="#30C557"/>
<stop offset="0.51" stop-color="#1C9441"/>
<stop offset="0.79" stop-color="#015022"/>
<stop offset="0.8" stop-color="#004E21"/>
</radialGradient>
<radialGradient id="paint37_radial_34_1186" cx="0" cy="0" r="1" gradientUnits="userSpaceOnUse" gradientTransform="translate(16.7569 1.90802) scale(52.2086 37.5091)">
<stop stop-color="#43F16B"/>
<stop offset="0.1" stop-color="#3EE666"/>
<stop offset="0.27" stop-color="#32C758"/>
<stop offset="0.5" stop-color="#1E9642"/>
<stop offset="0.77" stop-color="#035223"/>
<stop offset="0.8" stop-color="#004B20"/>
</radialGradient>
<radialGradient id="paint38_radial_34_1186" cx="0" cy="0" r="1" gradientUnits="userSpaceOnUse" gradientTransform="translate(16.6853 2.0041) scale(52.0905 37.4243)">
<stop stop-color="#45F26C"/>
<stop offset="0.1" stop-color="#40E767"/>
<stop offset="0.27" stop-color="#34C859"/>
<stop offset="0.49" stop-color="#209742"/>
<stop offset="0.76" stop-color="#055323"/>
<stop offset="0.8" stop-color="#00481E"/>
</radialGradient>
<radialGradient id="paint39_radial_34_1186" cx="0" cy="0" r="1" gradientUnits="userSpaceOnUse" gradientTransform="translate(16.6097 2.10658) scale(51.9685 37.3366)">
<stop stop-color="#46F46C"/>
<stop offset="0.09" stop-color="#41E967"/>
<stop offset="0.26" stop-color="#35CA59"/>
<stop offset="0.48" stop-color="#229943"/>
<stop offset="0.74" stop-color="#065524"/>
<stop offset="0.8" stop-color="#00451D"/>
</radialGradient>
<radialGradient id="paint40_radial_34_1186" cx="0" cy="0" r="1" gradientUnits="userSpaceOnUse" gradientTransform="translate(16.5377 2.21476) scale(51.8464 37.2489)">
<stop stop-color="#48F56D"/>
<stop offset="0.09" stop-color="#43EA68"/>
<stop offset="0.25" stop-color="#37CB5A"/>
<stop offset="0.47" stop-color="#239A44"/>
<stop offset="0.73" stop-color="#085625"/>
<stop offset="0.8" stop-color="#00421C"/>
</radialGradient>
<linearGradient id="paint41_linear_34_1186" x1="17.3811" y1="28.9973" x2="12.91" y2="-3.06485" gradientUnits="userSpaceOnUse">
<stop offset="0.1" stop-color="#FF8475"/>
<stop offset="0.37" stop-color="#E84E43"/>
<stop offset="0.6" stop-color="#D6261F"/>
<stop offset="0.79" stop-color="#CC0E08"/>
<stop offset="0.9" stop-color="#C80500"/>
</linearGradient>
<clipPath id="clip0_34_1186">
<rect width="24" height="24" fill="white" transform="translate(0.857147)"/>
</clipPath>
</defs>
</svg>
