<svg width="80" height="12" viewBox="0 0 80 12" fill="none" xmlns="http://www.w3.org/2000/svg">
<g clip-path="url(#clip0_13_3209)">
<mask id="mask0_13_3209" style="mask-type:luminance" maskUnits="userSpaceOnUse" x="0" y="0" width="80" height="12">
<path d="M79.4824 0H0.517822V12H79.4824V0Z" fill="white"/>
</mask>
<g mask="url(#mask0_13_3209)">
<path opacity="0.7" d="M0.517822 0V12H12.5178L0.517822 0Z" fill="white"/>
<path d="M12.5178 0H0.517822V12L12.5178 0Z" fill="white" fill-opacity="0.75"/>
<path d="M56.1979 2.3999C54.4047 2.3999 52.8379 3.84896 52.8379 5.64217V9.5999H54.2779V8.1599H58.1179V9.5999H59.5669V5.64217C59.5669 3.84896 57.9911 2.3999 56.1979 2.3999ZM58.1179 6.7199H54.2779V5.64217C54.2779 4.64594 55.2017 3.8399 56.1979 3.8399C57.1941 3.8399 58.1179 4.64594 58.1179 5.64217V6.7199Z" fill="white" fill-opacity="0.75"/>
<path d="M76.1224 2.3999C74.3292 2.3999 72.7625 3.84896 72.7625 5.64217V9.5999H74.2024V8.1599H78.0424V9.5999H79.4825V5.64217C79.4825 3.84896 77.9157 2.3999 76.1224 2.3999ZM78.0424 6.7199H74.2024V5.64217C74.2024 4.64594 75.1262 3.8399 76.1224 3.8399C77.1187 3.8399 78.0424 4.64594 78.0424 5.64217V6.7199Z" fill="white" fill-opacity="0.75"/>
<path d="M41.5623 2.3999C39.5789 2.3999 37.9578 4.01198 37.9578 6.00443C37.9578 7.98783 39.5698 9.60896 41.5623 9.60896C43.5457 9.60896 45.1668 7.99688 45.1668 6.00443C45.1668 4.01198 43.5457 2.3999 41.5623 2.3999ZM41.5623 8.1599C40.3668 8.1599 39.3978 7.19085 39.3978 5.99537C39.3978 4.7999 40.3668 3.83085 41.5623 3.83085C42.7578 3.83085 43.7268 4.7999 43.7268 5.99537C43.7178 7.19085 42.7487 8.1599 41.5623 8.1599Z" fill="white" fill-opacity="0.75"/>
<path d="M36.4363 5.62405C36.6174 5.30707 36.717 4.95386 36.717 4.56443C36.717 3.36896 35.748 2.3999 34.5525 2.3999H31.7178V9.5999H35.268C36.4634 9.5999 37.4325 8.63085 37.4325 7.43537C37.4325 6.67462 37.034 6.00443 36.4363 5.62405ZM33.1578 3.8399H34.5525C34.951 3.8399 35.268 4.16594 35.268 4.55537C35.268 4.94481 34.9419 5.27085 34.5525 5.27085H33.1578V3.8399ZM35.268 8.1599H33.1578V6.7199H35.268C35.6665 6.7199 35.9834 7.04594 35.9834 7.43537C35.9925 7.83386 35.6665 8.1599 35.268 8.1599Z" fill="white" fill-opacity="0.75"/>
<path d="M27.2801 2.3999C25.2967 2.3999 23.6755 4.01198 23.6755 6.00443C23.6755 7.98783 25.2876 9.60896 27.2801 9.60896C29.2725 9.60896 30.8846 7.99688 30.8846 6.00443C30.8846 4.01198 29.2635 2.3999 27.2801 2.3999ZM27.2801 8.1599C26.0846 8.1599 25.1155 7.19085 25.1155 5.99537C25.1155 4.7999 26.0846 3.83085 27.2801 3.83085C28.4755 3.83085 29.4446 4.7999 29.4446 5.99537C29.4355 7.19085 28.4755 8.1599 27.2801 8.1599Z" fill="white" fill-opacity="0.75"/>
<path d="M64.1132 5.29799L64.1223 5.27988H62.4468C62.0483 5.27988 61.7313 4.95384 61.7313 4.56441C61.7313 4.16592 62.0573 3.84894 62.4468 3.84894H65.0823L66.0423 2.40894H62.4377C61.2423 2.40894 60.2732 3.37799 60.2732 4.57346C60.2732 5.68743 61.1155 6.60214 62.2022 6.71988L62.1932 6.73799H63.8687C64.2672 6.73799 64.5841 7.06403 64.5841 7.45346C64.5841 7.85195 64.2581 8.16894 63.8687 8.16894H61.2332L60.2823 9.59988H63.8868C65.0823 9.59988 66.0513 8.63082 66.0513 7.43535C66.0423 6.32139 65.2 5.40667 64.1132 5.29799Z" fill="white" fill-opacity="0.75"/>
<path d="M68.4424 2.3999C67.2469 2.3999 66.2778 3.36896 66.2778 4.56443C66.2778 5.67839 67.1201 6.59311 68.2069 6.71085L68.1978 6.72896H69.8733C70.2718 6.72896 70.5888 7.055 70.5888 7.44443C70.5888 7.84292 70.2627 8.1599 69.8733 8.1599H67.2378L66.2778 9.5999H69.8824C71.0778 9.5999 72.0469 8.63085 72.0469 7.43537C72.0469 6.32141 71.2046 5.40669 70.1178 5.28896L70.1269 5.27085H68.4424C68.0439 5.27085 67.7269 4.94481 67.7269 4.55537C67.7269 4.15688 68.0529 3.8399 68.4424 3.8399H71.0778L72.0378 2.3999H68.4424Z" fill="white" fill-opacity="0.75"/>
<path d="M52.05 2.3999L49.1066 5.53349L52.1224 9.5999H50.447L48.1466 6.55688L47.567 7.25424V9.5999H46.127V2.3999H47.567V5.24368L50.1662 2.3999H52.05Z" fill="white" fill-opacity="0.75"/>
<path d="M18.7579 9.5999H17.3179V2.3999H20.7141C21.3209 2.3999 21.8371 2.6082 22.2809 3.02481C22.7247 3.45047 23.0779 4.06632 23.0869 4.68217C23.096 5.24368 22.9601 5.69651 22.6069 6.12217C22.2718 6.53877 21.9277 6.85575 21.4024 6.96443L23.2047 9.5999H21.5292L19.8356 7.10934C19.7722 7.01877 19.6635 6.96443 19.5458 6.96443H18.7669V9.5999H18.7579ZM18.7579 5.64217H20.6779C21.2032 5.64217 21.6379 5.20745 21.6379 4.68217C21.6379 4.15688 21.2032 3.72217 20.6779 3.72217H18.7579V5.64217Z" fill="white" fill-opacity="0.75"/>
</g>
</g>
<defs>
<clipPath id="clip0_13_3209">
<rect width="78.9645" height="12" fill="white" transform="translate(0.517822)"/>
</clipPath>
</defs>
</svg>
