<svg width="80" height="12" viewBox="0 0 80 12" fill="none" xmlns="http://www.w3.org/2000/svg">
<g clip-path="url(#clip0_34_1217)">
<path d="M0.523987 0.00756836V12.0076H12.524L0.523987 0.00756836Z" fill="#517793"/>
<path d="M12.524 0.00756836H0.523987V12.0076L12.524 0.00756836Z" fill="#023D5E"/>
<path d="M56.2 2.40747C54.412 2.40747 52.84 3.85547 52.84 5.64747V9.60747H54.28V8.16747H58.12V9.60747H59.56V5.64747C59.556 3.85947 57.988 2.40747 56.2 2.40747ZM58.116 6.72747H54.276V5.64747C54.276 4.65547 55.2 3.84747 56.196 3.84747C57.188 3.84747 58.116 4.65547 58.116 5.64747V6.72747Z" fill="#517793"/>
<path d="M76.116 2.40747C74.328 2.40747 72.756 3.85547 72.756 5.64747V9.60747H74.196V8.16747H78.036V9.60747H79.476V5.64747C79.476 3.85947 77.904 2.40747 76.116 2.40747ZM78.036 6.72747H74.196V5.64747C74.196 4.65547 75.12 3.84747 76.116 3.84747C77.108 3.84747 78.036 4.65547 78.036 5.64747V6.72747Z" fill="#517793"/>
<path d="M41.56 2.40747C39.572 2.40747 37.96 4.01947 37.96 6.00747C37.96 7.99547 39.572 9.60747 41.56 9.60747C43.548 9.60747 45.16 7.99547 45.16 6.00747C45.16 4.01947 43.548 2.40747 41.56 2.40747ZM41.56 8.16747C40.368 8.16747 39.4 7.19947 39.4 6.00747C39.4 4.81547 40.368 3.84747 41.56 3.84747C42.752 3.84747 43.72 4.81547 43.72 6.00747C43.72 7.19947 42.752 8.16747 41.56 8.16747Z" fill="#023D5E"/>
<path d="M36.432 5.62747C36.612 5.31547 36.712 4.95547 36.712 4.56747C36.712 3.37547 35.744 2.40747 34.552 2.40747H31.724V9.60747H35.276C36.468 9.60747 37.436 8.63947 37.436 7.44747C37.432 6.68347 37.032 6.01147 36.432 5.62747ZM33.16 3.84747H34.552C34.948 3.84747 35.272 4.17147 35.272 4.56747C35.272 4.96347 34.948 5.28747 34.552 5.28747H33.16V3.84747ZM35.272 8.16747H33.16V6.72747H35.272C35.668 6.72747 35.992 7.05147 35.992 7.44747C35.992 7.83947 35.668 8.16747 35.272 8.16747Z" fill="#023D5E"/>
<path d="M27.28 2.40747C25.292 2.40747 23.68 4.01947 23.68 6.00747C23.68 7.99547 25.292 9.60747 27.28 9.60747C29.272 9.60747 30.88 7.99547 30.88 6.00747C30.88 4.01947 29.268 2.40747 27.28 2.40747ZM27.28 8.16747C26.088 8.16747 25.12 7.19947 25.12 6.00747C25.12 4.81547 26.088 3.84747 27.28 3.84747C28.472 3.84747 29.44 4.81547 29.44 6.00747C29.44 7.19947 28.472 8.16747 27.28 8.16747Z" fill="#023D5E"/>
<path d="M64.108 5.29956L64.116 5.28356H62.436C62.04 5.28356 61.716 4.95956 61.716 4.56356C61.716 4.16756 62.04 3.84356 62.436 3.84356H65.072L66.032 2.40356H62.432C61.24 2.40356 60.272 3.37156 60.272 4.56356C60.272 5.67956 61.116 6.59556 62.2 6.70756L62.192 6.72356H63.872C64.268 6.72356 64.592 7.04756 64.592 7.44356C64.592 7.83956 64.268 8.16356 63.872 8.16356H61.236L60.276 9.60356H63.876C65.068 9.60356 66.036 8.63556 66.036 7.44356C66.036 6.33156 65.192 5.41556 64.108 5.29956Z" fill="#517793"/>
<path d="M68.436 2.40747C67.244 2.40747 66.276 3.37547 66.276 4.56747C66.276 5.68347 67.12 6.59947 68.204 6.71147L68.196 6.72747H69.876C70.272 6.72747 70.596 7.05147 70.596 7.44747C70.596 7.84347 70.272 8.16747 69.876 8.16747H67.24L66.28 9.60747H69.88C71.072 9.60747 72.04 8.63947 72.04 7.44747C72.04 6.33147 71.196 5.41547 70.112 5.30347L70.12 5.28747H68.44C68.044 5.28747 67.72 4.96347 67.72 4.56747C67.72 4.17147 68.044 3.84747 68.44 3.84747H71.076L72.036 2.40747H68.436Z" fill="#517793"/>
<path d="M52.044 2.40747L49.1 5.53947L52.116 9.59947H50.436L48.14 6.55547L47.556 7.25147V9.59947H46.116V2.40747H47.556V5.24747L50.152 2.40747H52.044Z" fill="#517793"/>
<path d="M18.764 9.60747H17.324V2.40747H20.716C21.324 2.40747 21.844 2.61547 22.28 3.03147C22.724 3.45147 23.072 4.07147 23.084 4.68747C23.088 5.24347 22.956 5.69947 22.604 6.12747C22.268 6.54347 21.924 6.85947 21.404 6.96747L23.204 9.60347H21.524L19.832 7.11147C19.764 7.01947 19.656 6.96347 19.54 6.96347H18.764V9.60747ZM18.764 5.64747H20.684C21.212 5.64747 21.644 5.21547 21.644 4.68747C21.644 4.15947 21.212 3.72747 20.684 3.72747H18.764V5.64747Z" fill="#023D5E"/>
</g>
<defs>
<clipPath id="clip0_34_1217">
<rect width="78.952" height="12" fill="white" transform="translate(0.523987 0.00756836)"/>
</clipPath>
</defs>
</svg>
